<svg width="124" height="36" viewBox="0 0 124 36" fill="none" xmlns="http://www.w3.org/2000/svg">
<path d="M28.1407 9.41751H24.1457V35.7548H17.7338L3.41178 25.8162V19.5946C7.59005 16.0852 12.4728 13.5033 17.7338 12.0214V9.41751H0.715179V4.15005H28.1407V9.41751ZM17.7338 28.8574V18.2629C14.7546 19.4151 11.9406 20.9522 9.36429 22.8346L17.7338 28.8574Z" fill="#EF3E38"/>
<path d="M40.9046 9.4175H36.9096V35.7548H30.258V12.3394C30.3732 11.4981 30.1971 10.6428 29.7586 9.91443C29.4814 9.69108 29.1612 9.52649 28.8177 9.43078C28.4742 9.33507 28.1146 9.31026 27.7611 9.35787H26.243V4.15004H28.68C29.1934 4.14754 29.6954 4.3001 30.1199 4.58757C30.5443 4.87504 30.871 5.28389 31.057 5.7601C30.7317 4.26962 30.5445 2.7526 30.4977 1.22809V0.39325H36.8896V4.15004H40.8846L40.9046 9.4175Z" fill="#EF3E38"/>
<path d="M44.0806 17.0702C43.3018 16.3573 42.6865 15.4859 42.2763 14.5153C41.8661 13.5446 41.6708 12.4975 41.7036 11.445C41.6854 10.4121 41.8879 9.38708 42.2977 8.43789C42.7075 7.4887 43.3152 6.63694 44.0806 5.939C45.7552 4.46508 47.9394 3.69546 50.1729 3.79226C52.3997 3.70066 54.5757 4.46994 56.2453 5.939C57.0123 6.63674 57.6224 7.488 58.0355 8.43691C58.4486 9.38582 58.6554 10.4109 58.6423 11.445C58.6699 12.4986 58.4702 13.5459 58.0568 14.5163C57.6433 15.4866 57.0256 16.3575 56.2453 17.0702C54.6063 18.5415 52.4591 19.325 50.2528 19.2567C47.9856 19.3702 45.7657 18.5838 44.0806 17.0702ZM42.4227 26.4523V20.0121L59.9007 29.5134V35.7548L42.4227 26.4523ZM52.2104 13.6514C52.697 13.0207 52.9446 12.2394 52.9095 11.445C52.9425 10.6447 52.6954 9.85788 52.2104 9.21873C51.9686 8.92849 51.6622 8.69832 51.3155 8.5465C50.9688 8.39468 50.5912 8.32539 50.2129 8.34414C49.8349 8.32845 49.4584 8.39912 49.1121 8.55073C48.7659 8.70233 48.4591 8.93084 48.2154 9.21873C47.7018 9.84485 47.4386 10.6376 47.4763 11.445C47.4339 12.2469 47.6979 13.0351 48.2154 13.6514C48.4639 13.9322 48.772 14.1546 49.1174 14.3025C49.4629 14.4503 49.8371 14.5198 50.2129 14.5061C50.589 14.5227 50.9641 14.4545 51.31 14.3064C51.6559 14.1584 51.9637 13.9345 52.2104 13.6514Z" fill="#EF3E38"/>
<path d="M94.1975 35.7548H87.5658V22.119C87.5658 19.8133 86.7069 18.6405 84.9691 18.6405C83.2313 18.6405 82.2725 20.0121 82.2725 22.7352V23.8285H75.521V22.3775C75.521 19.853 74.5622 18.6008 72.6846 18.6008C72.2811 18.5947 71.8823 18.6877 71.5234 18.8714C71.1646 19.0552 70.8568 19.324 70.6272 19.6543C70.1083 20.4068 69.8489 21.3066 69.8881 22.2184C69.8881 24.7031 71.0866 25.9355 73.4836 25.9355C74.1185 25.9315 74.7525 25.885 75.3812 25.7963V31.3023C74.5009 31.4233 73.6132 31.483 72.7245 31.4812C71.4639 31.5475 70.2028 31.3578 69.0181 30.9238C67.8334 30.4899 66.7498 29.8206 65.8332 28.9568C64.9612 28.0507 64.2845 26.9767 63.8448 25.8008C63.4051 24.6249 63.2117 23.372 63.2764 22.119C63.1709 19.7376 64.0102 17.4103 65.6135 15.6391C66.463 14.7809 67.4871 14.1135 68.6171 13.6815C69.7471 13.2495 70.9569 13.063 72.1652 13.1346C73.7376 13.0936 75.2871 13.5154 76.6196 14.3471C77.7073 15.0257 78.4933 16.0923 78.8169 17.3286C79.0978 16.1648 79.7242 15.1121 80.6146 14.3073C81.5764 13.4651 82.8307 13.0301 84.1102 13.0948C84.7427 13.0614 85.3748 13.1669 85.9617 13.404C86.5485 13.641 87.0758 14.0037 87.5059 14.4663V9.41751H60.3801V4.15005H98.2124V9.41751H94.2175L94.1975 35.7548Z" fill="#EF3E38"/>
<path d="M110.976 9.4175H106.981V35.7548H100.33V12.3394C100.445 11.4981 100.269 10.6428 99.8304 9.91443C99.5532 9.69108 99.2329 9.52649 98.8894 9.43078C98.5459 9.33507 98.1864 9.31026 97.8329 9.35787H96.3148V4.15004H98.592C99.1047 4.15028 99.6056 4.30393 100.029 4.59105C100.453 4.87816 100.781 5.28548 100.969 5.7601C100.704 4.26408 100.577 2.74711 100.589 1.22809V0.39325H106.981V4.15004H110.976V9.4175Z" fill="#EF3E38"/>
<path d="M106.542 17.11H109.698" stroke="#EF3E38" stroke-width="0.5" stroke-miterlimit="10"/>
<path d="M109.918 5.5017H114.033L116.569 2.97729" stroke="#EF3E38" stroke-width="0.5" stroke-miterlimit="10"/>
<path d="M109.918 8.92056H120.624" stroke="#EF3E38" stroke-width="0.5" stroke-miterlimit="10"/>
<path d="M106.103 13.2141H113.933L120.684 19.9127" stroke="#EF3E38" stroke-width="0.5" stroke-miterlimit="10"/>
<path d="M106.103 21.1053H115.271" stroke="#EF3E38" stroke-width="0.5" stroke-miterlimit="10"/>
<path d="M106.103 25.2994H111.935" stroke="#EF3E38" stroke-width="0.5" stroke-miterlimit="10"/>
<path d="M106.103 29.7718H111.935L114.372 32.1968" stroke="#EF3E38" stroke-width="0.5" stroke-miterlimit="10"/>
<path d="M117.508 3.29531C118.291 3.29531 118.926 2.66346 118.926 1.88403C118.926 1.1046 118.291 0.472748 117.508 0.472748C116.725 0.472748 116.09 1.1046 116.09 1.88403C116.09 2.66346 116.725 3.29531 117.508 3.29531Z" stroke="#EF3E38" stroke-width="0.5" stroke-miterlimit="10"/>
<path d="M122.062 10.3318C122.846 10.3318 123.481 9.69999 123.481 8.92056C123.481 8.14113 122.846 7.50928 122.062 7.50928C121.279 7.50928 120.644 8.14113 120.644 8.92056C120.644 9.69999 121.279 10.3318 122.062 10.3318Z" stroke="#EF3E38" stroke-width="0.5" stroke-miterlimit="10"/>
<path d="M119.745 15.1222C120.529 15.1222 121.164 14.4904 121.164 13.711C121.164 12.9315 120.529 12.2997 119.745 12.2997C118.962 12.2997 118.327 12.9315 118.327 13.711C118.327 14.4904 118.962 15.1222 119.745 15.1222Z" stroke="#EF3E38" stroke-width="0.5" stroke-miterlimit="10"/>
<path d="M121.743 22.5166C122.526 22.5166 123.161 21.8847 123.161 21.1053C123.161 20.3259 122.526 19.694 121.743 19.694C120.96 19.694 120.325 20.3259 120.325 21.1053C120.325 21.8847 120.96 22.5166 121.743 22.5166Z" stroke="#EF3E38" stroke-width="0.5" stroke-miterlimit="10"/>
<path d="M110.976 18.5213C111.76 18.5213 112.395 17.8894 112.395 17.11C112.395 16.3306 111.76 15.6987 110.976 15.6987C110.193 15.6987 109.558 16.3306 109.558 17.11C109.558 17.8894 110.193 18.5213 110.976 18.5213Z" stroke="#EF3E38" stroke-width="0.5" stroke-miterlimit="10"/>
<path d="M116.689 22.5166C117.472 22.5166 118.107 21.8847 118.107 21.1053C118.107 20.3259 117.472 19.694 116.689 19.694C115.906 19.694 115.271 20.3259 115.271 21.1053C115.271 21.8847 115.906 22.5166 116.689 22.5166Z" stroke="#EF3E38" stroke-width="0.5" stroke-miterlimit="10"/>
<path d="M113.393 26.7107C114.177 26.7107 114.812 26.0788 114.812 25.2994C114.812 24.5199 114.177 23.8881 113.393 23.8881C112.61 23.8881 111.975 24.5199 111.975 25.2994C111.975 26.0788 112.61 26.7107 113.393 26.7107Z" stroke="#EF3E38" stroke-width="0.5" stroke-miterlimit="10"/>
<path d="M119.745 28.9568C120.529 28.9568 121.164 28.3249 121.164 27.5455C121.164 26.7661 120.529 26.1342 119.745 26.1342C118.962 26.1342 118.327 26.7661 118.327 27.5455C118.327 28.3249 118.962 28.9568 119.745 28.9568Z" stroke="#EF3E38" stroke-width="0.5" stroke-miterlimit="10"/>
<path d="M115.411 34.7013C116.194 34.7013 116.829 34.0695 116.829 33.29C116.829 32.5106 116.194 31.8788 115.411 31.8788C114.628 31.8788 113.993 32.5106 113.993 33.29C113.993 34.0695 114.628 34.7013 115.411 34.7013Z" stroke="#EF3E38" stroke-width="0.5" stroke-miterlimit="10"/>
</svg>
