<svg width="146" height="47" viewBox="0 0 146 47" fill="none" xmlns="http://www.w3.org/2000/svg">
<path d="M24.1616 46.9379C23.9525 46.9441 23.7437 46.9166 23.5434 46.8565L4.18216 41.1458C3.90292 41.062 3.64298 40.9239 3.41727 40.7394C3.19157 40.5549 3.00455 40.3276 2.86697 40.0706C2.72939 39.8136 2.64395 39.5319 2.61557 39.2417C2.58719 38.9516 2.61643 38.6587 2.7016 38.3799C2.81781 38.0009 3.03092 37.6588 3.31985 37.3874L6.72026 34.2473C6.96613 34.024 7.25881 33.8584 7.5769 33.7627C7.895 33.667 8.23046 33.6436 8.55876 33.6942L30.1815 37.1108L31.3366 35.4839C31.4156 35.3635 31.446 35.2178 31.4219 35.0759C31.3977 34.9341 31.3208 34.8066 31.2065 34.7192C31.1269 34.6699 31.0385 34.6368 30.9462 34.6216L2.55517 31.3676C2.0256 31.312 1.53467 31.0646 1.175 30.6719C0.815335 30.2793 0.611792 29.7686 0.602777 29.2362V17.0175C0.594896 16.5311 0.751167 16.0562 1.04636 15.6695C1.34156 15.2827 1.75846 15.0068 2.22977 14.8862L4.76787 14.2679V12.1853C4.77546 11.7066 4.93814 11.2432 5.23151 10.8647C5.52488 10.4863 5.93309 10.2132 6.39486 10.0865L35.5831 1.05673C35.9109 0.957817 36.2572 0.936903 36.5945 0.995652C36.9318 1.0544 37.2507 1.19119 37.5257 1.39509C37.8008 1.59899 38.0243 1.86436 38.1785 2.17003C38.3328 2.47569 38.4134 2.81317 38.414 3.15554V6.08413L41.0172 5.4496C41.2982 5.38181 41.5898 5.37014 41.8753 5.41527C42.1608 5.4604 42.4346 5.56143 42.681 5.71258C42.9273 5.86373 43.1415 6.06202 43.311 6.29609C43.4806 6.53015 43.6024 6.79539 43.6692 7.07659C43.6941 7.24924 43.6941 7.42458 43.6692 7.59723V29.1874C43.6714 29.4764 43.6161 29.763 43.5064 30.0305C43.3968 30.298 43.2351 30.5409 43.0307 30.7453C42.8263 30.9497 42.5833 31.1114 42.3159 31.2211C42.0484 31.3307 41.7618 31.386 41.4728 31.3838H41.2775L38.349 31.1235V37.6315C38.3511 37.9205 38.2958 38.2071 38.1862 38.4746C38.0766 38.742 37.9149 38.985 37.7105 39.1894C37.5061 39.3938 37.2631 39.5555 36.9956 39.6651C36.7282 39.7747 36.4416 39.8301 36.1525 39.8279H35.8109L30.9299 39.047L25.9513 46.0268C25.7469 46.31 25.4779 46.5404 25.1667 46.6988C24.8554 46.8573 24.5109 46.9392 24.1616 46.9379ZM8.21709 35.3537C8.14813 35.3521 8.07954 35.3642 8.01529 35.3894C7.95105 35.4145 7.89245 35.4521 7.84289 35.5001L4.44248 38.6239C4.33915 38.7276 4.28113 38.868 4.28113 39.0144C4.28113 39.1608 4.33915 39.3012 4.44248 39.4049C4.51038 39.477 4.59385 39.5326 4.68652 39.5676L24.0477 45.2783C24.1576 45.3096 24.2745 45.306 24.3823 45.2681C24.4901 45.2303 24.5835 45.1599 24.6497 45.0668L29.1565 38.6565L8.33098 35.4025L8.21709 35.3537ZM31.9874 37.4362L36.1363 38.087C36.2802 38.1063 36.426 38.0699 36.5439 37.9852C36.6619 37.9005 36.743 37.774 36.7708 37.6315V30.9445L6.81788 28.2437C6.27122 28.1913 5.76362 27.9374 5.39376 27.5314C5.0239 27.1255 4.81821 26.5965 4.81668 26.0473V15.9437L2.66906 16.4806C2.54691 16.5032 2.43637 16.5674 2.35627 16.6623C2.27617 16.7573 2.23146 16.877 2.22977 17.0012V29.2362C2.22921 29.3705 2.27903 29.5002 2.36939 29.5996C2.45975 29.699 2.58409 29.7609 2.71787 29.7731L31.1251 33.0271C31.4185 33.0451 31.7052 33.1226 31.9677 33.255C32.2301 33.3874 32.4629 33.5719 32.6516 33.7973C32.8404 34.0226 32.9813 34.284 33.0657 34.5656C33.1502 34.8472 33.1763 35.143 33.1426 35.435C33.1097 35.8036 32.9806 36.157 32.7684 36.46L31.9874 37.4362ZM38.414 29.4477L41.4891 29.7243C41.6333 29.738 41.7772 29.6946 41.8898 29.6033C42.0024 29.512 42.0746 29.3802 42.091 29.2362V7.58096C42.091 7.43425 42.0328 7.29354 41.929 7.1898C41.8253 7.08606 41.6846 7.02778 41.5379 7.02778H41.4077L38.414 7.75993V29.4477ZM6.45994 15.602V26.0961C6.46298 26.2337 6.51574 26.3655 6.60846 26.4672C6.70118 26.5689 6.82759 26.6336 6.96431 26.6493L36.7708 29.3501V8.19922L6.45994 15.602ZM36.2176 2.5861H36.0549L6.85042 11.6647C6.73731 11.6968 6.63785 11.7651 6.56731 11.8591C6.49677 11.9532 6.45905 12.0678 6.45994 12.1853V13.8123L36.7708 6.47461V3.22062C36.7826 3.14146 36.777 3.06069 36.7545 2.98388C36.7321 2.90707 36.6932 2.83605 36.6406 2.77573C36.588 2.7154 36.523 2.66721 36.4499 2.63447C36.3769 2.60173 36.2976 2.58523 36.2176 2.5861Z" fill="url(#paint0_linear_5_2629)"/>
<path d="M51.8368 14.7391C51.7239 14.755 51.609 14.7475 51.4992 14.717C51.3894 14.6866 51.287 14.6338 51.1985 14.5621C51.11 14.4904 51.0372 14.4011 50.9846 14.3C50.9321 14.1989 50.9009 14.0881 50.8931 13.9744C50.8768 13.8993 50.8768 13.8217 50.8931 13.7466V5.83942C50.877 5.73151 50.8823 5.62147 50.9087 5.51561C50.9351 5.40975 50.9822 5.31014 51.0472 5.22248C51.1122 5.13483 51.1938 5.06086 51.2874 5.00479C51.381 4.94873 51.4848 4.91168 51.5927 4.89577C51.6733 4.87955 51.7562 4.87955 51.8368 4.89577H55.1721C56.0252 4.85391 56.866 5.11304 57.5475 5.62791C57.8266 5.84417 58.0503 6.12363 58.2002 6.44326C58.3501 6.7629 58.4219 7.11357 58.4098 7.46641C58.4281 7.94672 58.2907 8.42009 58.018 8.81592C57.7454 9.21175 57.352 9.50883 56.8967 9.66285C57.4035 9.79345 57.8544 10.0845 58.182 10.4926C58.5067 10.9225 58.6733 11.4511 58.6539 11.9894C58.6705 12.3657 58.5998 12.7406 58.4474 13.085C58.295 13.4293 58.0649 13.7337 57.7753 13.9744C57.0641 14.4905 56.1957 14.7436 55.3185 14.6903L51.8368 14.7391ZM52.6665 9.0934H54.928C56.132 9.0934 56.7503 8.63785 56.7503 7.69419C56.7503 6.75054 56.132 6.29498 54.928 6.29498H52.6665V9.0934ZM52.6665 13.3887H55.1558C56.3761 13.3887 56.9943 12.9006 56.9943 11.9244C56.9943 10.9482 56.3761 10.4438 55.1558 10.4438H52.6665V13.3887Z" fill="url(#paint1_linear_5_2629)"/>
<path d="M60.4761 14.853C60.3373 14.8677 60.1972 14.8425 60.0722 14.7802C59.9473 14.7179 59.8428 14.6213 59.7709 14.5016C59.6991 14.3819 59.663 14.2442 59.6669 14.1046C59.6708 13.9651 59.7144 13.8296 59.7928 13.7141L63.4535 5.5791C63.5471 5.35387 63.6987 5.15741 63.8928 5.00966C64.0676 4.89687 64.2704 4.83491 64.4785 4.83069C64.687 4.83222 64.8905 4.89441 65.0642 5.00966C65.2583 5.15741 65.4098 5.35387 65.5035 5.5791L69.1805 13.7141C69.2488 13.8387 69.2847 13.9786 69.2847 14.1208C69.2847 14.263 69.2488 14.4029 69.1805 14.5276C69.1084 14.6363 69.0085 14.7238 68.8912 14.781C68.774 14.8383 68.6435 14.8631 68.5134 14.853C68.4051 14.8632 68.2958 14.8512 68.1922 14.8176C68.0887 14.784 67.9931 14.7296 67.9114 14.6577C67.7387 14.5009 67.605 14.3059 67.521 14.0883L66.8214 12.4613H62.0868L61.4035 14.0883C61.3161 14.305 61.1892 14.5036 61.0293 14.674C60.8748 14.8026 60.6766 14.8667 60.4761 14.853ZM64.4622 6.8807L62.6888 11.0621H66.2519L64.4785 6.8807H64.4622Z" fill="url(#paint2_linear_5_2629)"/>
<path d="M71.5396 14.8529C71.3434 14.8759 71.1461 14.8204 70.9907 14.6985C70.8352 14.5766 70.7343 14.3982 70.7099 14.2021C70.6939 14.1325 70.6939 14.0602 70.7099 13.9906V5.72552C70.697 5.48485 70.7722 5.24775 70.9214 5.05845C71.0742 4.91114 71.2786 4.8294 71.4908 4.83067C71.6576 4.82563 71.822 4.87099 71.9626 4.96083C72.1086 5.07417 72.2398 5.20535 72.3531 5.35131L77.2341 11.8593V5.67671C77.2341 5.45664 77.3215 5.24558 77.4771 5.08997C77.6327 4.93436 77.8438 4.84694 78.0639 4.84694C78.1721 4.84478 78.2796 4.86422 78.3802 4.90413C78.4808 4.94404 78.5724 5.00362 78.6496 5.07938C78.7269 5.15513 78.7883 5.24555 78.8302 5.34532C78.8721 5.44509 78.8936 5.55222 78.8936 5.66044V13.9744C78.9099 14.0905 78.9009 14.2088 78.8672 14.3211C78.8335 14.4334 78.7759 14.5372 78.6984 14.6252C78.6324 14.6974 78.5519 14.7551 78.4622 14.7943C78.3726 14.8335 78.2756 14.8535 78.1778 14.8529C78.0004 14.8605 77.8249 14.8152 77.6734 14.7228C77.5089 14.614 77.3656 14.4761 77.2504 14.316L72.3694 7.80806V13.9744C72.3908 14.0901 72.3846 14.2094 72.3513 14.3223C72.3179 14.4352 72.2584 14.5387 72.1776 14.6243C72.0967 14.7099 71.9968 14.7752 71.886 14.815C71.7751 14.8547 71.6564 14.8677 71.5396 14.8529Z" fill="url(#paint3_linear_5_2629)"/>
<path d="M85.8083 14.8692C84.8559 14.9011 83.9107 14.6942 83.0587 14.2672C82.3509 13.8672 81.783 13.2595 81.4317 12.5263C81.0417 11.688 80.8397 10.7746 80.8397 9.84994C80.8397 8.92533 81.0417 8.01188 81.4317 7.17354C81.7942 6.43744 82.3733 5.82993 83.0913 5.43266C83.923 4.99668 84.8535 4.78367 85.7921 4.81441C86.3399 4.8032 86.8868 4.86336 87.4191 4.99337C87.9438 5.12284 88.444 5.33717 88.8996 5.6279C88.9882 5.67806 89.0657 5.74577 89.1272 5.8269C89.1888 5.90803 89.2331 6.00087 89.2576 6.09973C89.2902 6.29512 89.2557 6.49579 89.1599 6.66918C89.0711 6.83673 88.9276 6.96879 88.7532 7.04338C88.6496 7.07623 88.5399 7.08451 88.4325 7.06757C88.3252 7.05063 88.2233 7.00892 88.1349 6.94576C87.798 6.7525 87.4369 6.60479 87.0611 6.50648C86.6673 6.40878 86.2629 6.35961 85.8572 6.36005C85.4213 6.33057 84.9842 6.39686 84.5767 6.55426C84.1691 6.71166 83.8009 6.95635 83.498 7.27116C82.9243 8.00669 82.6406 8.92723 82.7008 9.85808C82.6364 10.7971 82.9267 11.726 83.5143 12.4613C83.8377 12.7701 84.2214 13.009 84.6413 13.163C85.0612 13.3169 85.5083 13.3827 85.9548 13.3561C86.2639 13.3561 86.573 13.3561 86.8984 13.3561C87.2181 13.3034 87.5335 13.2272 87.8421 13.1283V10.7204H86.3127C85.8409 10.7204 85.5968 10.4926 85.5968 10.0533C85.5968 9.61403 85.8409 9.40252 86.3127 9.40252H88.6068C88.7728 9.37927 88.9413 9.42269 89.0755 9.5233C89.2096 9.6239 89.2985 9.77351 89.3226 9.93943C89.3385 9.99802 89.3385 10.0598 89.3226 10.1184V13.5513C89.3478 13.7225 89.3129 13.897 89.224 14.0453C89.135 14.1936 88.9974 14.3065 88.8345 14.3648C88.3797 14.5293 87.9116 14.6545 87.4353 14.7391C86.8996 14.8436 86.3538 14.8873 85.8083 14.8692Z" fill="url(#paint4_linear_5_2629)"/>
<path d="M92.2187 14.7391C92.1148 14.7551 92.0087 14.7499 91.9068 14.724C91.8049 14.698 91.7093 14.6517 91.6258 14.5879C91.5422 14.5241 91.4724 14.4441 91.4205 14.3526C91.3686 14.2612 91.3357 14.1602 91.3238 14.0557C91.3075 13.9807 91.3075 13.903 91.3238 13.8279V5.83942C91.3067 5.7129 91.3168 5.58417 91.3535 5.46187C91.3901 5.33958 91.4526 5.22655 91.5366 5.13038C91.6206 5.03422 91.7242 4.95714 91.8404 4.90432C91.9567 4.85151 92.0829 4.82419 92.2105 4.82419C92.3382 4.82419 92.4644 4.85151 92.5807 4.90432C92.6969 4.95714 92.8005 5.03422 92.8845 5.13038C92.9685 5.22655 93.0309 5.33958 93.0676 5.46187C93.1043 5.58417 93.1144 5.7129 93.0973 5.83942V13.226H97.1322C97.2355 13.2104 97.341 13.2188 97.4405 13.2504C97.5401 13.2821 97.6311 13.3361 97.7065 13.4084C97.7819 13.4806 97.8398 13.5692 97.8756 13.6674C97.9114 13.7655 97.9243 13.8705 97.9132 13.9744C97.9363 14.1533 97.8877 14.3342 97.7779 14.4775C97.6682 14.6207 97.5063 14.7148 97.3274 14.7391H92.2187Z" fill="url(#paint5_linear_5_2629)"/>
<path d="M99.0195 14.8529C98.8807 14.8677 98.7406 14.8424 98.6157 14.7802C98.4907 14.7179 98.3862 14.6213 98.3144 14.5016C98.2426 14.3819 98.2065 14.2441 98.2103 14.1046C98.2142 13.9651 98.2578 13.8296 98.3362 13.714L101.997 5.57908C102.091 5.35385 102.242 5.15739 102.436 5.00964C102.609 4.89212 102.813 4.82928 103.022 4.82928C103.231 4.82928 103.435 4.89212 103.608 5.00964C103.802 5.15739 103.953 5.35385 104.047 5.57908L107.724 13.714C107.792 13.8387 107.828 13.9786 107.828 14.1208C107.828 14.263 107.792 14.4029 107.724 14.5275C107.652 14.6363 107.552 14.7238 107.435 14.781C107.317 14.8382 107.187 14.8631 107.057 14.8529C106.948 14.8632 106.839 14.8512 106.736 14.8176C106.632 14.784 106.537 14.7296 106.455 14.6577C106.282 14.5009 106.148 14.3059 106.064 14.0882L105.365 12.4613H100.63L99.9469 14.0882C99.8595 14.305 99.7326 14.5036 99.5727 14.674C99.4182 14.8026 99.2201 14.8667 99.0195 14.8529ZM103.006 6.88068L101.232 11.062H104.73L103.103 6.88068H103.006Z" fill="url(#paint6_linear_5_2629)"/>
<path d="M110.197 14.7391C110.084 14.755 109.969 14.7475 109.859 14.717C109.75 14.6866 109.647 14.6338 109.559 14.5621C109.47 14.4904 109.397 14.4011 109.345 14.3C109.292 14.1989 109.261 14.0881 109.253 13.9744C109.237 13.8993 109.237 13.8217 109.253 13.7466V5.83942C109.237 5.73151 109.242 5.62147 109.269 5.51561C109.295 5.40975 109.342 5.31014 109.407 5.22248C109.472 5.13483 109.554 5.06086 109.648 5.00479C109.741 4.94873 109.845 4.91168 109.953 4.89577C110.033 4.87955 110.116 4.87955 110.197 4.89577H112.865C114.245 4.81841 115.601 5.27256 116.656 6.16482C117.523 7.17167 118 8.45621 118 9.78488C118 11.1135 117.523 12.3981 116.656 13.4049C115.617 14.3312 114.255 14.8106 112.865 14.7391H110.197ZM111.027 13.2748H112.865C113.319 13.3165 113.776 13.2548 114.202 13.0943C114.628 12.9338 115.012 12.6786 115.325 12.3481C115.639 12.0176 115.873 11.6203 116.01 11.1862C116.148 10.7521 116.185 10.2924 116.119 9.84182C116.236 9.05218 116.034 8.24863 115.558 7.6079C115.082 6.96716 114.371 6.54172 113.581 6.42514C113.301 6.37621 113.015 6.37621 112.735 6.42514H111.027V13.2748Z" fill="url(#paint7_linear_5_2629)"/>
<path d="M120.789 14.7391C120.676 14.755 120.561 14.7475 120.451 14.717C120.341 14.6866 120.239 14.6338 120.15 14.5621C120.062 14.4904 119.989 14.4011 119.937 14.3C119.884 14.1989 119.853 14.0881 119.845 13.9744C119.829 13.8993 119.829 13.8216 119.845 13.7466V5.83942C119.829 5.73151 119.834 5.62147 119.861 5.51561C119.887 5.40975 119.934 5.31014 119.999 5.22248C120.064 5.13483 120.146 5.06086 120.239 5.00479C120.333 4.94873 120.437 4.91168 120.545 4.89577C120.625 4.87955 120.708 4.87955 120.789 4.89577H125.67C126.158 4.89577 126.402 5.12355 126.402 5.59537C126.425 5.76143 126.382 5.92993 126.281 6.06407C126.18 6.19821 126.031 6.28707 125.865 6.31125C125.801 6.32778 125.734 6.32778 125.67 6.31125H121.553V9.0934H125.442C125.627 9.0934 125.805 9.16711 125.937 9.29831C126.068 9.42952 126.141 9.60746 126.141 9.79301C126.142 9.98009 126.068 10.1597 125.938 10.2935C125.807 10.4273 125.629 10.5046 125.442 10.5089H121.553V13.3236H125.735C125.837 13.3081 125.941 13.3148 126.04 13.3432C126.139 13.3717 126.231 13.4212 126.309 13.4884C126.387 13.5556 126.45 13.6389 126.493 13.7326C126.536 13.8263 126.558 13.9282 126.558 14.0313C126.558 14.1344 126.536 14.2363 126.493 14.33C126.45 14.4237 126.387 14.507 126.309 14.5742C126.231 14.6414 126.139 14.691 126.04 14.7194C125.941 14.7479 125.837 14.7546 125.735 14.7391H120.789Z" fill="url(#paint8_linear_5_2629)"/>
<path d="M131.364 14.8692C130.751 14.8776 130.139 14.812 129.542 14.674C128.998 14.5244 128.481 14.2882 128.012 13.9744C127.823 13.8623 127.683 13.6819 127.622 13.47C127.558 13.2801 127.558 13.0742 127.622 12.8843C127.693 12.7154 127.827 12.581 127.996 12.5101C128.096 12.4796 128.201 12.474 128.303 12.4939C128.405 12.5137 128.501 12.5584 128.582 12.624C128.991 12.8543 129.429 13.0294 129.884 13.1446C130.353 13.2558 130.833 13.3104 131.315 13.3073C131.882 13.3591 132.45 13.234 132.942 12.9494C133.097 12.8419 133.224 12.6984 133.312 12.5313C133.4 12.3641 133.446 12.1782 133.447 11.9894C133.452 11.8427 133.422 11.6969 133.36 11.564C133.298 11.4311 133.205 11.3148 133.089 11.2248C132.717 10.9922 132.302 10.8373 131.868 10.7692L130.339 10.4438C128.598 10.0859 127.736 9.19102 127.736 7.77553C127.721 7.19498 127.892 6.62477 128.224 6.14854C128.57 5.68413 129.037 5.32389 129.574 5.10727C130.203 4.8455 130.879 4.71803 131.559 4.73306C132.108 4.72004 132.656 4.78579 133.186 4.9283C133.668 5.05713 134.124 5.26614 134.537 5.54656C134.619 5.59997 134.691 5.66913 134.746 5.75009C134.802 5.83105 134.842 5.92222 134.862 6.01838C134.927 6.19147 134.927 6.3822 134.862 6.55529C134.822 6.63295 134.767 6.70178 134.7 6.75769C134.633 6.81359 134.555 6.85542 134.472 6.88069C134.364 6.91139 134.251 6.91708 134.141 6.89734C134.031 6.8776 133.927 6.83295 133.837 6.7668C133.507 6.58617 133.158 6.44422 132.796 6.34378C132.421 6.26571 132.04 6.22754 131.657 6.22989C131.129 6.20003 130.606 6.33662 130.16 6.62037C129.991 6.73959 129.854 6.89825 129.761 7.08256C129.667 7.26687 129.62 7.47124 129.623 7.67791C129.613 7.82683 129.637 7.97614 129.693 8.11434C129.75 8.25255 129.837 8.37598 129.949 8.47514C130.279 8.73126 130.673 8.89418 131.087 8.94697L132.601 9.27237C133.354 9.38367 134.063 9.69871 134.651 10.1835C134.869 10.3929 135.042 10.6459 135.157 10.9262C135.272 11.2064 135.327 11.5077 135.318 11.8105C135.334 12.3585 135.168 12.8964 134.846 13.3398C134.511 13.808 134.047 14.1696 133.512 14.3811C132.842 14.7053 132.108 14.8723 131.364 14.8692Z" fill="url(#paint9_linear_5_2629)"/>
<path d="M137.644 14.853C137.539 14.8666 137.433 14.8592 137.331 14.8313C137.229 14.8034 137.134 14.7555 137.05 14.6904C136.967 14.6253 136.898 14.5443 136.846 14.4521C136.794 14.3599 136.761 14.2584 136.749 14.1533C136.733 14.0837 136.733 14.0114 136.749 13.9418V5.83942C136.745 5.60321 136.832 5.37446 136.993 5.20143C137.154 5.02841 137.376 4.92465 137.612 4.91204C137.728 4.90769 137.845 4.92667 137.954 4.96785C138.063 5.00904 138.163 5.07161 138.248 5.1519C138.333 5.23219 138.401 5.3286 138.448 5.43547C138.495 5.54235 138.521 5.65755 138.523 5.77434V9.0934H143.567V5.83942C143.548 5.60281 143.623 5.36841 143.775 5.1861C143.927 5.00379 144.144 4.88795 144.38 4.86323C144.615 4.84518 144.847 4.92047 145.027 5.07277C145.207 5.22506 145.319 5.44208 145.34 5.67672V13.9744C145.351 14.0898 145.339 14.2064 145.305 14.3173C145.271 14.4282 145.215 14.5312 145.141 14.6205C145.067 14.7097 144.976 14.7834 144.873 14.8372C144.771 14.8911 144.658 14.9241 144.543 14.9343C144.306 14.9525 144.072 14.8777 143.889 14.7258C143.707 14.5739 143.591 14.3568 143.567 14.1208V10.5252H138.523V13.9744C138.556 14.1813 138.506 14.3929 138.384 14.5634C138.263 14.7339 138.078 14.8496 137.872 14.8855L137.644 14.853Z" fill="url(#paint10_linear_5_2629)"/>
<path d="M55.4487 28.9101C54.5357 28.9443 53.6306 28.7307 52.8292 28.2919C52.1307 27.8802 51.5658 27.2757 51.2022 26.551C50.8165 25.7115 50.6168 24.7985 50.6168 23.8746C50.6168 22.9507 50.8165 22.0377 51.2022 21.1982C51.5658 20.4735 52.1307 19.869 52.8292 19.4573C53.6377 19.0392 54.5388 18.8321 55.4487 18.8553C55.954 18.855 56.4572 18.9207 56.9455 19.0506C57.4001 19.1672 57.8337 19.3538 58.2308 19.6038C58.4455 19.7295 58.603 19.9336 58.6701 20.1732C58.6972 20.2726 58.7043 20.3763 58.6911 20.4784C58.6779 20.5805 58.6446 20.679 58.5932 20.7682C58.5418 20.8575 58.4733 20.9356 58.3915 20.9982C58.3098 21.0609 58.2165 21.1067 58.117 21.1331C58.0006 21.1563 57.8806 21.1537 57.7654 21.1256C57.6502 21.0975 57.5425 21.0445 57.4499 20.9704C57.1589 20.7857 56.8403 20.6484 56.5062 20.5637C56.1759 20.4847 55.8371 20.4465 55.4975 20.4498C55.0774 20.418 54.6555 20.482 54.2638 20.637C53.872 20.792 53.5206 21.034 53.236 21.3446C52.7268 22.0962 52.4546 22.9831 52.4546 23.8909C52.4546 24.7987 52.7268 25.6856 53.236 26.4371C53.522 26.747 53.8732 26.9894 54.2643 27.147C54.6554 27.3046 55.0766 27.3733 55.4975 27.3482C55.8485 27.346 56.198 27.3023 56.5388 27.2181C56.8797 27.1234 57.2076 26.9868 57.515 26.8113C57.6076 26.7372 57.7153 26.6843 57.8305 26.6561C57.9457 26.628 58.0657 26.6255 58.182 26.6486C58.3662 26.7033 58.523 26.8253 58.6213 26.9903C58.7199 27.1628 58.749 27.3665 58.7027 27.5597C58.6502 27.7795 58.5165 27.9713 58.3285 28.0966C57.9279 28.3768 57.4821 28.5859 57.0106 28.7149C56.5014 28.8516 55.9758 28.9173 55.4487 28.9101Z" fill="url(#paint11_linear_5_2629)"/>
<path d="M64.3971 28.9101C63.5326 28.9268 62.6791 28.7134 61.9241 28.2919C61.2256 27.873 60.6612 27.2634 60.2971 26.5347C59.9117 25.698 59.7121 24.7877 59.7121 23.8665C59.7121 22.9452 59.9117 22.0349 60.2971 21.1982C60.6644 20.4761 61.2284 19.8726 61.9241 19.4573C62.6927 19.0567 63.5467 18.8475 64.4134 18.8475C65.2802 18.8475 66.1341 19.0567 66.9027 19.4573C67.5935 19.8786 68.156 20.4806 68.5297 21.1982C68.9324 22.0233 69.1331 22.9323 69.1154 23.8502C69.1352 24.7788 68.9344 25.6988 68.5297 26.5347C68.1613 27.2603 67.5978 27.8688 66.9027 28.2919C66.1381 28.719 65.2727 28.9326 64.3971 28.9101ZM64.3971 27.3808C64.7959 27.4073 65.1951 27.3367 65.5606 27.1752C65.9261 27.0137 66.2471 26.766 66.496 26.4534C66.9775 25.6795 67.2328 24.7861 67.2328 23.8746C67.2328 22.9631 66.9775 22.0698 66.496 21.2958C66.2406 21.0163 65.9324 20.7902 65.5892 20.6306C65.2459 20.4709 64.8744 20.381 64.4962 20.3658C64.1179 20.3507 63.7404 20.4107 63.3855 20.5424C63.0306 20.6741 62.7053 20.8749 62.4285 21.1331L62.2658 21.2958C61.7842 22.0698 61.5289 22.9631 61.5289 23.8746C61.5289 24.7861 61.7842 25.6795 62.2658 26.4534C62.5206 26.7676 62.8473 27.0159 63.2182 27.1773C63.5892 27.3387 63.9935 27.4085 64.3971 27.3808Z" fill="url(#paint12_linear_5_2629)"/>
<path d="M71.7511 28.8776C71.657 28.8913 71.5611 28.8862 71.469 28.8624C71.3768 28.8386 71.2904 28.7967 71.2147 28.7392C71.1389 28.6816 71.0754 28.6095 71.0278 28.5271C70.9803 28.4448 70.9496 28.3537 70.9376 28.2593V19.7014C70.9239 19.6051 70.9295 19.5071 70.9541 19.413C70.9787 19.3189 71.0218 19.2307 71.0809 19.1534C71.14 19.0762 71.2138 19.0115 71.2982 18.9631C71.3825 18.9147 71.4757 18.8836 71.5722 18.8716H71.7837C71.9718 18.8584 72.1594 18.9039 72.3206 19.0018C72.4831 19.1181 72.6122 19.2753 72.6948 19.4573L75.9488 25.3796L79.2028 19.4573C79.2853 19.2753 79.4144 19.1181 79.577 19.0018C79.7373 18.9018 79.9256 18.8561 80.1139 18.8716C80.208 18.8603 80.3034 18.8678 80.3946 18.8936C80.4858 18.9195 80.5709 18.9632 80.6451 19.0222C80.7193 19.0813 80.781 19.1544 80.8266 19.2375C80.8723 19.3206 80.901 19.4119 80.9111 19.5061C80.9276 19.5702 80.9276 19.6373 80.9111 19.7014V28.0478C80.9177 28.1539 80.903 28.2602 80.8679 28.3604C80.8329 28.4607 80.7781 28.553 80.7068 28.6318C80.6356 28.7106 80.5493 28.7744 80.4531 28.8194C80.3568 28.8644 80.2526 28.8897 80.1464 28.8939C80.0396 28.8982 79.9329 28.8815 79.8325 28.8446C79.7322 28.8077 79.64 28.7513 79.5615 28.6788C79.4829 28.6063 79.4194 28.519 79.3746 28.4219C79.3298 28.3247 79.3046 28.2198 79.3004 28.1129V22.1093L76.5996 26.9903C76.5199 27.1184 76.4212 27.2336 76.3067 27.332C76.1825 27.4165 76.0335 27.4566 75.8837 27.4458C75.7347 27.449 75.5879 27.4095 75.4607 27.332C75.3378 27.2424 75.2375 27.1254 75.1678 26.9903L72.5484 22.2557V28.0966C72.5646 28.1908 72.5618 28.2872 72.5401 28.3803C72.5185 28.4733 72.4784 28.5611 72.4223 28.6384C72.3662 28.7158 72.2952 28.7811 72.2135 28.8305C72.1317 28.88 72.0409 28.9126 71.9464 28.9264C71.8781 28.9275 71.8108 28.9106 71.7511 28.8776Z" fill="url(#paint13_linear_5_2629)"/>
<path d="M83.8559 28.8776C83.6467 28.9054 83.435 28.849 83.2673 28.7209C83.0995 28.5928 82.9894 28.4034 82.9611 28.1943C82.953 28.1186 82.953 28.0422 82.9611 27.9665V19.8315C82.945 19.7288 82.9496 19.624 82.9746 19.523C82.9995 19.4221 83.0444 19.3272 83.1065 19.2439C83.1686 19.1605 83.2468 19.0904 83.3364 19.0377C83.4259 18.9849 83.5252 18.9506 83.6282 18.9367H87.2076C88.1084 18.8775 88.998 19.1624 89.6968 19.7339C90.2537 20.3524 90.5618 21.1551 90.5618 21.9873C90.5618 22.8195 90.2537 23.6222 89.6968 24.2407C89.0037 24.8239 88.1114 25.1156 87.2076 25.0542H84.7508V27.9665C84.767 28.0701 84.7626 28.176 84.7378 28.2779C84.713 28.3798 84.6684 28.4759 84.6064 28.5605C84.5444 28.6451 84.4663 28.7167 84.3767 28.7711C84.287 28.8256 84.1874 28.8617 84.0837 28.8776C84.0087 28.8939 83.931 28.8939 83.8559 28.8776ZM84.7508 23.7363H86.9472C88.2163 23.7363 88.8671 23.1831 88.8671 22.1093C88.8671 21.0355 88.2163 20.4823 86.9472 20.4823H84.7508V23.7363Z" fill="url(#paint14_linear_5_2629)"/>
<path d="M96.0909 28.9101C95.6057 28.9691 95.1136 28.9317 94.6429 28.7999C94.1722 28.6681 93.7322 28.4446 93.3482 28.1422C92.9642 27.8398 92.6437 27.4645 92.4052 27.0379C92.1667 26.6112 92.0148 26.1417 91.9584 25.6562C91.9258 25.3424 91.9258 25.0262 91.9584 24.7125V19.7664C91.9562 19.6476 91.9778 19.5295 92.0218 19.419C92.0658 19.3086 92.1313 19.208 92.2146 19.1232C92.298 19.0383 92.3973 18.971 92.507 18.925C92.6166 18.879 92.7343 18.8553 92.8532 18.8553C93.0862 18.8553 93.3097 18.9479 93.4745 19.1127C93.6392 19.2774 93.7318 19.5009 93.7318 19.7339V24.7125C93.6803 25.4284 93.9011 26.1374 94.35 26.6974C94.5763 26.9248 94.849 27.1006 95.1494 27.2129C95.4499 27.3252 95.771 27.3714 96.0909 27.3482C97.7179 27.3482 98.4501 26.4696 98.4501 24.7125V19.7664C98.4457 19.6511 98.4642 19.5359 98.5043 19.4277C98.5445 19.3194 98.6056 19.2201 98.6842 19.1355C98.7628 19.0509 98.8573 18.9826 98.9623 18.9345C99.0673 18.8864 99.1807 18.8595 99.2961 18.8553C99.4115 18.851 99.5266 18.8694 99.6349 18.9096C99.7431 18.9498 99.8424 19.0109 99.927 19.0895C100.012 19.168 100.08 19.2625 100.128 19.3675C100.176 19.4725 100.203 19.586 100.207 19.7014V24.7613C100.247 25.3224 100.176 25.8858 99.9972 26.4192C99.8185 26.9525 99.536 27.4452 99.1659 27.8689C98.7492 28.2394 98.2623 28.5226 97.7341 28.7014C97.2058 28.8803 96.6471 28.9513 96.0909 28.9101Z" fill="url(#paint15_linear_5_2629)"/>
<path d="M105.527 28.8776C105.318 28.9053 105.107 28.849 104.939 28.7209C104.771 28.5928 104.661 28.4034 104.633 28.1943C104.625 28.1185 104.625 28.0422 104.633 27.9665V20.4823H101.932C101.845 20.4962 101.757 20.493 101.672 20.4727C101.586 20.4524 101.506 20.4156 101.435 20.3642C101.364 20.3128 101.304 20.248 101.258 20.1733C101.212 20.0987 101.181 20.0157 101.167 19.9291V19.7339C101.167 19.2458 101.427 19.0018 101.932 19.0018H109.123C109.23 18.9859 109.338 18.9932 109.441 19.0232C109.545 19.0531 109.64 19.105 109.722 19.1753C109.803 19.2455 109.869 19.3325 109.914 19.4303C109.958 19.5281 109.982 19.6345 109.982 19.742C109.982 19.8496 109.958 19.9559 109.914 20.0538C109.869 20.1516 109.803 20.2386 109.722 20.3088C109.64 20.3791 109.545 20.4309 109.441 20.4609C109.338 20.4908 109.23 20.4981 109.123 20.4823H106.357V27.9665C106.373 28.0701 106.369 28.1759 106.344 28.2779C106.319 28.3798 106.275 28.4759 106.213 28.5605C106.151 28.6451 106.073 28.7167 105.983 28.7711C105.893 28.8255 105.794 28.8617 105.69 28.8776C105.636 28.8859 105.581 28.8859 105.527 28.8776Z" fill="url(#paint16_linear_5_2629)"/>
<path d="M111.856 28.78C111.637 28.8079 111.415 28.7486 111.238 28.6147C111.062 28.4809 110.945 28.2832 110.913 28.0641C110.897 27.9891 110.897 27.9114 110.913 27.8363V19.9292C110.897 19.8212 110.902 19.7112 110.928 19.6053C110.955 19.4995 111.002 19.3999 111.067 19.3122C111.132 19.2246 111.214 19.1506 111.307 19.0945C111.401 19.0385 111.504 19.0014 111.612 18.9855H116.803C117.291 18.9855 117.535 19.2133 117.535 19.6688C117.558 19.8368 117.515 20.0073 117.415 20.144C117.315 20.2807 117.165 20.373 116.998 20.401H112.621V23.0855H116.493C116.683 23.0855 116.865 23.1609 117 23.2952C117.134 23.4295 117.209 23.6115 117.209 23.8014C117.209 23.8947 117.191 23.987 117.155 24.0729C117.118 24.1589 117.065 24.2368 116.999 24.3019C116.932 24.3671 116.853 24.4183 116.766 24.4525C116.679 24.4867 116.587 24.5032 116.493 24.501H112.621V27.3645H116.803C116.99 27.3645 117.169 27.4376 117.303 27.5684C117.437 27.6992 117.514 27.8771 117.518 28.0641C117.518 28.254 117.443 28.4361 117.309 28.5703C117.174 28.7046 116.992 28.78 116.803 28.78H111.856Z" fill="url(#paint17_linear_5_2629)"/>
<path d="M120.089 28.8776C119.985 28.8936 119.879 28.8885 119.777 28.8625C119.675 28.8365 119.58 28.7902 119.496 28.7264C119.413 28.6626 119.343 28.5826 119.291 28.4911C119.239 28.3997 119.206 28.2987 119.194 28.1943C119.178 28.1192 119.178 28.0415 119.194 27.9665V19.8315C119.166 19.6223 119.223 19.4106 119.351 19.2429C119.479 19.0751 119.668 18.965 119.878 18.9367H123.441C124.337 18.8732 125.224 19.1458 125.93 19.7014C126.227 19.9748 126.46 20.3106 126.612 20.6848C126.764 21.0589 126.831 21.4621 126.809 21.8653C126.846 22.5199 126.641 23.1653 126.233 23.6785C125.825 24.1916 125.242 24.5366 124.596 24.6474C124.852 24.7368 125.087 24.8763 125.288 25.0579C125.489 25.2395 125.652 25.4595 125.767 25.705L126.809 27.6411C126.881 27.7623 126.926 27.8981 126.94 28.0387C126.954 28.1794 126.937 28.3214 126.89 28.4546C126.792 28.7149 126.564 28.8288 126.174 28.8288C125.963 28.8466 125.751 28.7952 125.572 28.6824C125.393 28.5503 125.248 28.3774 125.149 28.178L123.75 25.6073C123.631 25.3361 123.425 25.1125 123.164 24.9728C122.887 24.8536 122.587 24.798 122.285 24.8101H121V27.9665C121.019 28.0704 121.016 28.177 120.992 28.2798C120.968 28.3826 120.924 28.4795 120.861 28.5647C120.799 28.6498 120.72 28.7214 120.629 28.7752C120.538 28.829 120.438 28.8638 120.333 28.8776C120.253 28.899 120.169 28.899 120.089 28.8776ZM121 23.5411H123.164C124.466 23.5411 125.116 23.0042 125.116 21.9141C125.116 20.824 124.466 20.2871 123.164 20.2871H121V23.5411Z" fill="url(#paint18_linear_5_2629)"/>
<path d="M55.4487 43.0812C54.5357 43.1154 53.6305 42.9018 52.8292 42.463C52.1271 42.0558 51.5611 41.4501 51.2022 40.7221C50.8168 39.8854 50.6172 38.9751 50.6172 38.0538C50.6172 37.1326 50.8168 36.2223 51.2022 35.3856C51.5648 34.6559 52.1295 34.0459 52.8292 33.6284C53.6362 33.2046 54.5373 32.9919 55.4487 33.0102C55.954 33.0099 56.4572 33.0755 56.9455 33.2054C57.4008 33.3276 57.8344 33.5197 58.2308 33.7749C58.4445 33.8941 58.6024 34.0929 58.6701 34.328C58.7439 34.5219 58.7439 34.7361 58.6701 34.93C58.62 35.0186 58.5523 35.0961 58.4711 35.1576C58.39 35.2192 58.2972 35.2635 58.1983 35.288C58.0821 35.3147 57.9613 35.3139 57.8455 35.2857C57.7296 35.2574 57.622 35.2025 57.5312 35.1253C57.2392 34.9462 56.9207 34.8145 56.5876 34.7348C56.2595 34.6425 55.9196 34.5986 55.5788 34.6046C55.1591 34.5764 54.7383 34.642 54.3471 34.7968C53.9559 34.9516 53.6041 35.1916 53.3173 35.4995C52.8088 36.2543 52.5372 37.1437 52.5372 38.0538C52.5372 38.964 52.8088 39.8534 53.3173 40.6082C53.6041 40.916 53.9559 41.1561 54.3471 41.3109C54.7383 41.4657 55.1591 41.5313 55.5788 41.5031C55.9298 41.5008 56.2794 41.4571 56.6201 41.3729C56.9636 41.2855 57.2924 41.1485 57.5963 40.9662C57.6889 40.8921 57.7966 40.8391 57.9118 40.811C58.0271 40.7829 58.147 40.7803 58.2634 40.8035C58.4475 40.8581 58.6043 40.9801 58.7027 41.1451C58.8012 41.3177 58.8303 41.5213 58.784 41.7146C58.7604 41.8244 58.7152 41.9285 58.6509 42.0207C58.5867 42.1129 58.5047 42.1913 58.4098 42.2515C58.013 42.538 57.566 42.7477 57.0919 42.8697C56.5573 43.0195 56.0038 43.0908 55.4487 43.0812Z" fill="url(#paint19_linear_5_2629)"/>
<path d="M64.3971 43.0812C63.5316 43.1068 62.6758 42.8928 61.9241 42.463C61.2256 42.044 60.6612 41.4344 60.2971 40.7058C59.911 39.8722 59.7109 38.9644 59.7109 38.0457C59.7109 37.1269 59.911 36.2192 60.2971 35.3856C60.6589 34.6554 61.2239 34.0452 61.9241 33.6284C62.6927 33.2278 63.5467 33.0186 64.4134 33.0186C65.2802 33.0186 66.1341 33.2278 66.9027 33.6284C67.5978 34.0515 68.1613 34.66 68.5297 35.3856C68.936 36.2094 69.1369 37.1193 69.1154 38.0376C69.1332 38.9607 68.9325 39.875 68.5297 40.7058C68.1613 41.4314 67.5978 42.0399 66.9027 42.463C66.1412 42.8979 65.2736 43.112 64.3971 43.0812ZM64.3971 41.5519C64.7959 41.5783 65.1951 41.5078 65.5606 41.3463C65.9261 41.1848 66.2471 40.9371 66.496 40.6245C66.9776 39.8505 67.2328 38.9572 67.2328 38.0457C67.2328 37.1342 66.9776 36.2408 66.496 35.4669C66.2409 35.1898 65.9336 34.9658 65.5919 34.8076C65.2501 34.6494 64.8804 34.5602 64.5041 34.5451C64.1278 34.53 63.7522 34.5893 63.3988 34.7195C63.0454 34.8498 62.7212 35.0485 62.4447 35.3042L62.2821 35.4669C61.8005 36.2408 61.5452 37.1342 61.5452 38.0457C61.5452 38.9572 61.8005 39.8505 62.2821 40.6245C62.5267 40.9512 62.8469 41.2137 63.2153 41.3894C63.5837 41.5651 63.9893 41.6488 64.3971 41.6332V41.5519Z" fill="url(#paint20_linear_5_2629)"/>
<path d="M74.9889 43.0812C74.5024 43.1425 74.0086 43.1068 73.536 42.9761C73.0634 42.8454 72.6215 42.6223 72.2357 42.3197C71.8499 42.0171 71.5279 41.641 71.2883 41.2132C71.0488 40.7854 70.8964 40.3143 70.84 39.8272C70.8075 39.5135 70.8075 39.1973 70.84 38.8836V33.9538C70.84 33.7165 70.9343 33.4889 71.1021 33.3211C71.2699 33.1532 71.4975 33.059 71.7349 33.059C71.9722 33.059 72.1998 33.1532 72.3676 33.3211C72.5354 33.4889 72.6297 33.7165 72.6297 33.9538V38.9324C72.5713 39.6415 72.7867 40.3459 73.2317 40.9011C73.4603 41.1309 73.7352 41.3092 74.0383 41.4243C74.3413 41.5393 74.6654 41.5884 74.9889 41.5681C76.5508 41.5681 77.3317 40.6896 77.3317 38.9324V33.9538C77.3274 33.8384 77.3458 33.7233 77.386 33.615C77.4262 33.5068 77.4873 33.4075 77.5659 33.3229C77.6444 33.2382 77.7389 33.1699 77.8439 33.1219C77.9489 33.0738 78.0624 33.0469 78.1778 33.0427C78.4124 33.0338 78.6412 33.1175 78.8147 33.2758C78.9882 33.4341 79.0925 33.6542 79.1051 33.8887V38.9324C79.1476 39.4949 79.0758 40.0602 78.8941 40.5943C78.7123 41.1283 78.4244 41.6201 78.0476 42.04C77.6343 42.4109 77.1503 42.6943 76.6247 42.8733C76.099 43.0522 75.5426 43.123 74.9889 43.0812Z" fill="url(#paint21_linear_5_2629)"/>
<path d="M81.9524 43.065C81.7551 43.0841 81.5579 43.0275 81.4008 42.9067C81.2437 42.7858 81.1384 42.6098 81.1063 42.4142C81.0977 42.3439 81.0977 42.2729 81.1063 42.2027V33.9375C81.095 33.8179 81.1078 33.6971 81.1442 33.5825C81.1805 33.4679 81.2396 33.3618 81.3178 33.2705C81.3925 33.1961 81.4814 33.1375 81.5793 33.0984C81.6771 33.0592 81.7819 33.0403 81.8873 33.0427C82.0525 33.0318 82.2171 33.0715 82.3591 33.1566C82.5006 33.2758 82.6263 33.4124 82.7333 33.5633L87.6143 39.99V33.8887C87.6121 33.7805 87.6316 33.673 87.6715 33.5724C87.7114 33.4718 87.771 33.3802 87.8467 33.303C87.9225 33.2257 88.0129 33.1643 88.1127 33.1224C88.2125 33.0805 88.3196 33.0589 88.4278 33.059C88.6466 33.0588 88.8571 33.1435 89.0148 33.2952C89.1726 33.4468 89.2654 33.6538 89.2738 33.8725V42.2027C89.2838 42.4253 89.2146 42.6444 89.0786 42.8209C89.0101 42.8944 88.9269 42.9527 88.8344 42.992C88.7419 43.0312 88.6421 43.0505 88.5417 43.0487C88.3647 43.0535 88.1899 43.0084 88.0373 42.9185C87.8821 42.8042 87.745 42.667 87.6306 42.5118L82.7496 36.0038V42.1213C82.8147 42.7721 82.5381 43.065 81.9524 43.065Z" fill="url(#paint22_linear_5_2629)"/>
<path d="M96.1072 43.0812C95.1945 43.113 94.2899 42.8995 93.4877 42.463C92.7806 42.0621 92.2129 41.4547 91.8607 40.7221C91.4753 39.8854 91.2758 38.9751 91.2758 38.0538C91.2758 37.1326 91.4753 36.2223 91.8607 35.3856C92.2128 34.6487 92.7801 34.036 93.4877 33.6284C94.2955 33.2066 95.1961 32.994 96.1072 33.0102C96.6125 33.0099 97.1157 33.0755 97.604 33.2054C98.0655 33.3244 98.505 33.5167 98.9056 33.7748C99.1193 33.8941 99.2772 34.0929 99.3449 34.328C99.4187 34.5219 99.4187 34.7361 99.3449 34.93C99.2947 35.0186 99.227 35.0961 99.1459 35.1576C99.0648 35.2192 98.9719 35.2635 98.8731 35.2879C98.7569 35.3147 98.6361 35.3139 98.5203 35.2857C98.4044 35.2574 98.2968 35.2025 98.206 35.1252C97.914 34.9462 97.5955 34.8145 97.2624 34.7348C96.9343 34.6425 96.5944 34.5986 96.2536 34.6046C95.8339 34.5764 95.4131 34.642 95.0219 34.7968C94.6307 34.9516 94.2789 35.1916 93.9921 35.4995C93.4836 36.2543 93.212 37.1437 93.212 38.0538C93.212 38.964 93.4836 39.8534 93.9921 40.6082C94.2782 40.917 94.6298 41.1576 95.0212 41.3125C95.4126 41.4674 95.8337 41.5325 96.2536 41.5031C96.6046 41.5008 96.9541 41.4571 97.2949 41.3729C97.6383 41.2855 97.9672 41.1485 98.2711 40.9661C98.3631 40.891 98.4708 40.8375 98.5862 40.8093C98.7016 40.7812 98.8219 40.7792 98.9382 40.8034C99.1223 40.8581 99.2791 40.9801 99.3774 41.1451C99.476 41.3177 99.5051 41.5213 99.4588 41.7146C99.4352 41.8244 99.39 41.9285 99.3257 42.0207C99.2615 42.1128 99.1795 42.1913 99.0846 42.2515C98.6861 42.5351 98.2396 42.7446 97.7667 42.8697C97.2268 43.0206 96.6677 43.0919 96.1072 43.0812Z" fill="url(#paint23_linear_5_2629)"/>
<path d="M101.883 43.065C101.674 43.0879 101.464 43.0272 101.3 42.8961C101.135 42.7651 101.029 42.5743 101.004 42.3654C100.988 42.2903 100.988 42.2126 101.004 42.1376V34.0026C100.991 33.8859 101.001 33.7676 101.034 33.6548C101.067 33.5421 101.122 33.4371 101.197 33.346C101.271 33.255 101.363 33.1798 101.467 33.1249C101.571 33.07 101.685 33.0365 101.802 33.0264C102.038 33.0082 102.273 33.083 102.455 33.2349C102.637 33.3868 102.753 33.6039 102.778 33.8399V42.1701C102.794 42.2738 102.79 42.3796 102.765 42.4815C102.74 42.5835 102.695 42.6795 102.633 42.7641C102.571 42.8488 102.493 42.9204 102.404 42.9748C102.314 43.0292 102.214 43.0654 102.111 43.0812L101.883 43.065Z" fill="url(#paint24_linear_5_2629)"/>
<path d="M105.82 42.9511C105.607 42.9788 105.391 42.9207 105.22 42.7896C105.049 42.6584 104.938 42.4649 104.909 42.2515V34.0189C104.909 33.9014 104.932 33.785 104.977 33.6765C105.022 33.5679 105.088 33.4692 105.171 33.3861C105.254 33.3031 105.353 33.2371 105.462 33.1922C105.57 33.1472 105.687 33.1241 105.804 33.1241C105.922 33.1241 106.038 33.1472 106.146 33.1922C106.255 33.2371 106.354 33.3031 106.437 33.3861C106.52 33.4692 106.586 33.5679 106.631 33.6765C106.676 33.785 106.699 33.9014 106.699 34.0189V41.438H110.718C110.899 41.4647 111.065 41.5558 111.185 41.6947C111.305 41.8336 111.371 42.011 111.371 42.1945C111.371 42.3781 111.305 42.5555 111.185 42.6944C111.065 42.8333 110.899 42.9244 110.718 42.9511H105.837H105.82Z" fill="url(#paint25_linear_5_2629)"/>
<defs>
<linearGradient id="paint0_linear_5_2629" x1="13.7017" y1="10.2525" x2="68.0484" y2="60.6299" gradientUnits="userSpaceOnUse">
<stop stop-color="#39AA5E"/>
<stop offset="1" stop-color="#263779"/>
</linearGradient>
<linearGradient id="paint1_linear_5_2629" x1="-46.7327" y1="8.08939" x2="145.296" y2="8.08939" gradientUnits="userSpaceOnUse">
<stop stop-color="#39AA5E"/>
<stop offset="1" stop-color="#263779"/>
</linearGradient>
<linearGradient id="paint2_linear_5_2629" x1="-42.8574" y1="13.8566" x2="148.749" y2="13.8566" gradientUnits="userSpaceOnUse">
<stop stop-color="#39AA5E"/>
<stop offset="1" stop-color="#263779"/>
</linearGradient>
<linearGradient id="paint3_linear_5_2629" x1="-47.4259" y1="8.51401" x2="144.478" y2="8.51401" gradientUnits="userSpaceOnUse">
<stop stop-color="#39AA5E"/>
<stop offset="1" stop-color="#263779"/>
</linearGradient>
<linearGradient id="paint4_linear_5_2629" x1="-40.1663" y1="14.0796" x2="151.565" y2="14.0796" gradientUnits="userSpaceOnUse">
<stop stop-color="#39AA5E"/>
<stop offset="1" stop-color="#263779"/>
</linearGradient>
<linearGradient id="paint5_linear_5_2629" x1="-43.1451" y1="13.5448" x2="149.03" y2="13.5448" gradientUnits="userSpaceOnUse">
<stop stop-color="#39AA5E"/>
<stop offset="1" stop-color="#263779"/>
</linearGradient>
<linearGradient id="paint6_linear_5_2629" x1="-44.0775" y1="13.6613" x2="147.529" y2="13.6613" gradientUnits="userSpaceOnUse">
<stop stop-color="#39AA5E"/>
<stop offset="1" stop-color="#263779"/>
</linearGradient>
<linearGradient id="paint7_linear_5_2629" x1="-41.6158" y1="11.5173" x2="150.125" y2="11.5173" gradientUnits="userSpaceOnUse">
<stop stop-color="#39AA5E"/>
<stop offset="1" stop-color="#263779"/>
</linearGradient>
<linearGradient id="paint8_linear_5_2629" x1="-39.524" y1="8.08939" x2="152.402" y2="8.08939" gradientUnits="userSpaceOnUse">
<stop stop-color="#39AA5E"/>
<stop offset="1" stop-color="#263779"/>
</linearGradient>
<linearGradient id="paint9_linear_5_2629" x1="-41.8728" y1="11.9569" x2="149.836" y2="11.9569" gradientUnits="userSpaceOnUse">
<stop stop-color="#39AA5E"/>
<stop offset="1" stop-color="#263779"/>
</linearGradient>
<linearGradient id="paint10_linear_5_2629" x1="-47.1772" y1="10.1558" x2="144.73" y2="10.1558" gradientUnits="userSpaceOnUse">
<stop stop-color="#39AA5E"/>
<stop offset="1" stop-color="#263779"/>
</linearGradient>
<linearGradient id="paint11_linear_5_2629" x1="-47.6986" y1="27.5" x2="144.099" y2="27.5" gradientUnits="userSpaceOnUse">
<stop stop-color="#39AA5E"/>
<stop offset="1" stop-color="#263779"/>
</linearGradient>
<linearGradient id="paint12_linear_5_2629" x1="-46.4911" y1="23.1809" x2="145.144" y2="23.1809" gradientUnits="userSpaceOnUse">
<stop stop-color="#39AA5E"/>
<stop offset="1" stop-color="#263779"/>
</linearGradient>
<linearGradient id="paint13_linear_5_2629" x1="-44.5303" y1="27.898" x2="147.439" y2="27.898" gradientUnits="userSpaceOnUse">
<stop stop-color="#39AA5E"/>
<stop offset="1" stop-color="#263779"/>
</linearGradient>
<linearGradient id="paint14_linear_5_2629" x1="-48.5808" y1="24.2244" x2="143.444" y2="24.2244" gradientUnits="userSpaceOnUse">
<stop stop-color="#39AA5E"/>
<stop offset="1" stop-color="#263779"/>
</linearGradient>
<linearGradient id="paint15_linear_5_2629" x1="-39.8181" y1="25.1658" x2="152.634" y2="25.1658" gradientUnits="userSpaceOnUse">
<stop stop-color="#39AA5E"/>
<stop offset="1" stop-color="#263779"/>
</linearGradient>
<linearGradient id="paint16_linear_5_2629" x1="-40.9082" y1="28.0288" x2="151.005" y2="28.0288" gradientUnits="userSpaceOnUse">
<stop stop-color="#39AA5E"/>
<stop offset="1" stop-color="#263779"/>
</linearGradient>
<linearGradient id="paint17_linear_5_2629" x1="-39.4963" y1="22.1614" x2="152.43" y2="22.1614" gradientUnits="userSpaceOnUse">
<stop stop-color="#39AA5E"/>
<stop offset="1" stop-color="#263779"/>
</linearGradient>
<linearGradient id="paint18_linear_5_2629" x1="-47.6887" y1="23.9641" x2="144.263" y2="23.9641" gradientUnits="userSpaceOnUse">
<stop stop-color="#39AA5E"/>
<stop offset="1" stop-color="#263779"/>
</linearGradient>
<linearGradient id="paint19_linear_5_2629" x1="-47.6986" y1="40.7903" x2="144.098" y2="40.7903" gradientUnits="userSpaceOnUse">
<stop stop-color="#39AA5E"/>
<stop offset="1" stop-color="#263779"/>
</linearGradient>
<linearGradient id="paint20_linear_5_2629" x1="-46.4911" y1="37.431" x2="145.144" y2="37.431" gradientUnits="userSpaceOnUse">
<stop stop-color="#39AA5E"/>
<stop offset="1" stop-color="#263779"/>
</linearGradient>
<linearGradient id="paint21_linear_5_2629" x1="-49.9317" y1="34.6352" x2="142.909" y2="34.6352" gradientUnits="userSpaceOnUse">
<stop stop-color="#39AA5E"/>
<stop offset="1" stop-color="#263779"/>
</linearGradient>
<linearGradient id="paint22_linear_5_2629" x1="-46.0919" y1="36.8118" x2="145.926" y2="36.8118" gradientUnits="userSpaceOnUse">
<stop stop-color="#39AA5E"/>
<stop offset="1" stop-color="#263779"/>
</linearGradient>
<linearGradient id="paint23_linear_5_2629" x1="-41.3579" y1="40.6601" x2="150.439" y2="40.6601" gradientUnits="userSpaceOnUse">
<stop stop-color="#39AA5E"/>
<stop offset="1" stop-color="#263779"/>
</linearGradient>
<linearGradient id="paint24_linear_5_2629" x1="-46.7583" y1="38.4962" x2="146.682" y2="38.4962" gradientUnits="userSpaceOnUse">
<stop stop-color="#39AA5E"/>
<stop offset="1" stop-color="#263779"/>
</linearGradient>
<linearGradient id="paint25_linear_5_2629" x1="-42.3524" y1="41.915" x2="149.044" y2="41.915" gradientUnits="userSpaceOnUse">
<stop stop-color="#39AA5E"/>
<stop offset="1" stop-color="#263779"/>
</linearGradient>
</defs>
</svg>
