<svg width="94" height="130" viewBox="0 0 94 130" fill="none" xmlns="http://www.w3.org/2000/svg">
<path d="M23.3333 29.5002V17.6668C23.3333 14.5284 24.58 11.5186 26.7992 9.2994C29.0183 7.08022 32.0282 5.8335 35.1666 5.8335H58.8333C61.9716 5.8335 64.9815 7.08022 67.2007 9.2994C69.4199 11.5186 70.6666 14.5284 70.6666 17.6668V29.5002M88.4166 29.5002V112.334C88.4166 115.472 87.1699 118.482 84.9507 120.701C82.7315 122.92 79.7216 124.167 76.5833 124.167H17.4166C14.2782 124.167 11.2683 122.92 9.04915 120.701C6.82997 118.482 5.58325 115.472 5.58325 112.334V29.5002H88.4166Z" stroke="white" stroke-width="10" stroke-linecap="round" stroke-linejoin="round"/>
</svg>
