<svg width="268" height="226" viewBox="0 0 268 226" fill="none" xmlns="http://www.w3.org/2000/svg">
<path d="M0 0H268V92C268 166.006 208.006 226 134 226C59.9938 226 0 166.006 0 92V0Z" fill="#EB5757"/>
<path d="M80.75 77.5H92.5833H187.25" stroke="white" stroke-width="10" stroke-linecap="round" stroke-linejoin="round"/>
<path d="M110.333 77.5002V65.6668C110.333 62.5284 111.58 59.5186 113.799 57.2994C116.018 55.0802 119.028 53.8335 122.167 53.8335H145.833C148.972 53.8335 151.981 55.0802 154.201 57.2994C156.42 59.5186 157.667 62.5284 157.667 65.6668V77.5002M175.417 77.5002V160.334C175.417 163.472 174.17 166.482 171.951 168.701C169.731 170.92 166.722 172.167 163.583 172.167H104.417C101.278 172.167 98.2683 170.92 96.0492 168.701C93.83 166.482 92.5833 163.472 92.5833 160.334V77.5002H175.417Z" stroke="white" stroke-width="10" stroke-linecap="round" stroke-linejoin="round"/>
<path d="M122.167 107.083V142.583" stroke="white" stroke-width="10" stroke-linecap="round" stroke-linejoin="round"/>
<path d="M145.833 107.083V142.583" stroke="white" stroke-width="10" stroke-linecap="round" stroke-linejoin="round"/>
</svg>
