<svg width="142" height="142" viewBox="0 0 142 142" fill="none" xmlns="http://www.w3.org/2000/svg">
<path d="M17.75 35.5H29.5833H124.25" stroke="white" stroke-width="10" stroke-linecap="round" stroke-linejoin="round"/>
<path d="M47.3333 35.5002V23.6668C47.3333 20.5284 48.58 17.5186 50.7992 15.2994C53.0183 13.0802 56.0282 11.8335 59.1666 11.8335H82.8333C85.9716 11.8335 88.9815 13.0802 91.2007 15.2994C93.4199 17.5186 94.6666 20.5284 94.6666 23.6668V35.5002M112.417 35.5002V118.334C112.417 121.472 111.17 124.482 108.951 126.701C106.731 128.92 103.722 130.167 100.583 130.167H41.4166C38.2782 130.167 35.2683 128.92 33.0492 126.701C30.83 124.482 29.5833 121.472 29.5833 118.334V35.5002H112.417Z" stroke="white" stroke-width="10" stroke-linecap="round" stroke-linejoin="round"/>
<path d="M59.1667 65.0835V100.583" stroke="white" stroke-width="10" stroke-linecap="round" stroke-linejoin="round"/>
<path d="M82.8333 65.0835V100.583" stroke="white" stroke-width="10" stroke-linecap="round" stroke-linejoin="round"/>
</svg>
