<svg width="80" height="43" viewBox="0 0 80 43" fill="none" xmlns="http://www.w3.org/2000/svg">
<g clip-path="url(#clip0_5_2817)">
<path d="M17.1813 0.462529C7.90515 0.462529 0.358555 7.87939 0.358555 16.9966C0.358555 26.1133 7.90515 33.5301 17.1813 33.5301C26.458 33.5301 34.0046 26.1133 34.0046 16.9966C34.0046 7.87939 26.458 0.462529 17.1813 0.462529ZM17.1813 33.8825C12.592 33.8825 8.27745 32.126 5.03213 28.9369C1.78728 25.7474 0 21.507 0 16.9966C0 12.4861 1.78728 8.24529 5.03213 5.05621C8.27745 1.86669 12.592 0.110138 17.1813 0.110138C21.7711 0.110138 26.0857 1.86669 29.331 5.05621C32.5758 8.24529 34.3631 12.4857 34.3631 16.9966C34.3631 21.507 32.5758 25.7474 29.331 28.9369C26.0857 32.126 21.7711 33.8825 17.1813 33.8825Z" fill="#079948"/>
<path d="M28.5924 16.9956C28.5924 23.1892 23.4833 28.21 17.1818 28.21C10.8794 28.21 5.77078 23.1892 5.77078 16.9956C5.77078 10.802 10.8794 5.78073 17.1818 5.78073C23.4833 5.78073 28.5924 10.802 28.5924 16.9956Z" fill="#EC1C24"/>
<path d="M11.4921 29.4121C11.3932 29.2915 11.3057 29.1817 11.2187 29.1002C11.1326 29.0174 11.0506 28.9576 10.9705 28.9193C10.9197 28.8927 10.7786 28.8549 10.5423 28.8045L10.5442 28.8014C10.6106 28.6839 10.5556 28.5363 10.3972 28.3437L10.5529 28.4346C10.6046 28.4652 10.6586 28.4917 10.7113 28.5206L11.03 28.6898C11.1363 28.7451 11.2466 28.7942 11.3542 28.8473C11.4632 28.8981 11.5704 28.9535 11.6821 28.9985L11.4921 29.4121ZM13.1557 29.553L12.7243 29.1668C11.3359 28.6758 10.0331 27.9512 8.88694 27.0358L9.14475 27.4913C9.16627 27.5174 9.18734 27.5444 9.21069 27.5691C9.26106 27.688 9.33067 27.7892 9.41767 27.872C9.4424 27.8945 9.48544 27.9296 9.54681 27.9769C9.60954 28.0223 9.69243 28.0777 9.79317 28.1452C9.87056 28.197 9.93558 28.2483 9.98916 28.3C10.0432 28.3504 10.0872 28.3981 10.1183 28.4481C10.181 28.5471 10.1961 28.6479 10.1632 28.7501C9.95344 28.7442 9.78355 28.7384 9.66495 28.7217C9.54543 28.7055 9.47125 28.6884 9.44377 28.6709C9.38928 28.6358 9.3444 28.5665 9.31098 28.4638C9.29403 28.4031 9.29678 28.3428 9.32105 28.2807L8.8732 28.1763C8.92632 28.3527 8.9831 28.4989 9.03988 28.6133C9.09667 28.7285 9.15803 28.8054 9.21573 28.854C9.26381 28.9112 9.36272 28.9877 9.512 29.0836C9.57382 29.1205 9.62236 29.1475 9.65717 29.165C9.72219 29.197 9.83896 29.2208 10.0047 29.2348C10.0872 29.2429 10.1833 29.2451 10.2923 29.2429C10.4008 29.2415 10.5208 29.237 10.6522 29.2285C10.7773 29.2226 10.8986 29.2438 11.0145 29.2987C11.0964 29.3378 11.1766 29.3959 11.2553 29.4742C11.3336 29.5534 11.379 29.607 11.3835 29.6484L11.0644 30.3446C11.2091 30.5003 11.3542 30.6637 11.5081 30.8167L12.1707 29.2042C12.3337 29.2654 12.4958 29.3293 12.6598 29.3883" fill="#079948"/>
<path d="M14.6518 31.0431C14.5158 30.918 14.3459 30.796 14.1426 30.6795C14.0409 30.621 13.9328 30.5552 13.8151 30.4949C13.7565 30.4643 13.6956 30.4337 13.6329 30.4031C13.6013 30.3883 13.5692 30.3734 13.5367 30.3581C13.5047 30.3415 13.4722 30.3253 13.4392 30.3086C13.5518 30.3104 13.6659 30.305 13.7785 30.3046C13.8912 30.3032 14.0034 30.3037 14.1146 30.3064C14.3386 30.3064 14.5611 30.3068 14.7814 30.3176L14.6518 31.0431ZM13.8765 31.2488C13.9823 31.2222 14.0249 31.1718 14.0047 31.1079C13.9869 31.058 13.9328 31.0044 13.8417 30.9513C13.751 30.8982 13.6494 30.8577 13.5358 30.8302C13.4053 30.801 13.2913 30.7852 13.1887 30.7969C13.0866 30.8077 13.0275 30.8379 13.0124 30.8883C12.9968 30.9409 13.033 31.0021 13.1228 31.0724C13.1676 31.1075 13.2198 31.139 13.2798 31.1669C13.3394 31.1952 13.408 31.215 13.4831 31.2339C13.6388 31.2717 13.7707 31.2767 13.8765 31.2488ZM16.3836 30.1322C16.2064 30.0417 16.0315 29.9607 15.8616 29.8613C15.2315 29.8037 14.6078 29.6934 13.9951 29.5431C13.3824 29.3928 12.7798 29.201 12.1945 28.967L12.6158 29.3734C13.3398 29.6317 14.0872 29.8271 14.8459 29.9585L14.8363 30.0102C14.0775 29.9805 13.2766 29.9544 12.4125 29.9022C12.5613 30.0701 12.7152 30.2366 12.8737 30.4067C13.0486 30.4625 13.2162 30.5228 13.3769 30.5912C13.457 30.625 13.5363 30.6588 13.615 30.6921C13.6929 30.7258 13.7694 30.7618 13.844 30.7996C13.9063 30.8307 13.9653 30.8626 14.0212 30.895C14.0775 30.9256 14.1316 30.9553 14.1815 30.9868C14.2827 31.049 14.3711 31.1138 14.4466 31.1813C14.4594 31.1912 14.4975 31.2299 14.5629 31.2969C14.6289 31.3631 14.7228 31.4522 14.8464 31.5715L15.1468 31.7335L15.379 30.039C15.5456 30.0602 15.7132 30.0759 15.8804 30.0948C15.9221 30.0989 15.9637 30.1043 16.0059 30.1079L16.1318 30.116" fill="#079948"/>
<path d="M18.1498 31.1858C18.072 31.1453 17.9877 31.107 17.898 31.0719C17.8527 31.0544 17.8059 31.0382 17.7579 31.0215C17.7098 31.0035 17.6599 30.9864 17.6086 30.9697C17.403 30.9031 17.1731 30.8523 16.9185 30.7933C17.0485 30.7582 17.1456 30.7339 17.2111 30.7137C17.2766 30.6934 17.3105 30.6822 17.3132 30.6813C17.4199 30.6529 17.539 30.6241 17.6709 30.5953C17.8027 30.5678 17.947 30.5278 18.1031 30.4936L18.1498 31.1858ZM19.3904 30.6313C19.3107 30.6426 19.2209 30.6619 19.1211 30.6889C18.9535 30.7731 18.8715 30.8491 18.8802 30.9202C18.888 30.9837 18.9572 31.0319 19.0895 31.0589C19.2214 31.0868 19.3684 31.0895 19.5282 31.067C19.7526 31.0273 19.9293 30.9567 20.0557 30.8581C20.1716 30.7654 20.2178 30.6714 20.1981 30.5818C20.1885 30.539 20.1647 30.4949 20.1272 30.4495C20.0246 30.3334 19.8277 30.2425 19.5451 30.1817C19.3936 30.1529 19.2397 30.1277 19.0849 30.1205C19.0075 30.1169 18.9297 30.1164 18.8518 30.1205C18.7731 30.1227 18.6939 30.1254 18.6137 30.134L18.6082 30.0818C19.3285 30.0066 20.0424 29.8743 20.7403 29.6857C20.5485 29.6565 20.3607 29.6304 20.172 29.5903C19.3725 29.7722 18.5556 29.8815 17.734 29.9166C16.9125 29.9481 16.0878 29.9072 15.2755 29.7906C15.4398 29.8968 15.6097 29.9868 15.7815 30.084C16.5439 30.161 17.3137 30.1759 18.0784 30.1263L18.0834 30.1984C17.2821 30.3599 16.5366 30.5084 15.835 30.6786C15.9339 30.7438 16.0347 30.801 16.1364 30.8608L16.445 31.0386C16.5352 31.0499 16.6236 31.0562 16.7106 31.0656C16.7971 31.0751 16.8828 31.0863 16.9666 31.0994C17.0504 31.112 17.1323 31.1286 17.2129 31.1426C17.294 31.1561 17.3732 31.1714 17.4511 31.1885C17.5848 31.2191 17.7473 31.283 17.9419 31.3563C18.0912 31.4135 18.1993 31.4639 18.2652 31.508C18.2955 31.5296 18.3596 31.5931 18.4603 31.6889L18.7909 31.7785L18.6453 30.4247C18.7158 30.4171 18.785 30.4126 18.8523 30.4112C18.9192 30.4081 18.9842 30.4063 19.0478 30.409C19.1751 30.413 19.296 30.4301 19.4114 30.4589C19.585 30.499 19.6903 30.5498 19.7246 30.6174C19.6289 30.6043 19.5186 30.6142 19.3904 30.6313Z" fill="#079948"/>
<path d="M20.172 29.5903C20.085 29.6038 19.9788 29.625 19.8538 29.6542C19.7274 29.6794 19.5818 29.7091 19.4169 29.7469L19.699 29.8095C19.7938 29.8306 19.8895 29.8523 19.9848 29.8676C20.0402 29.8554 20.08 29.8464 20.1052 29.841C20.2128 29.8171 20.314 29.8063 20.4102 29.8086C20.5054 29.8072 20.5952 29.8194 20.6799 29.8446C20.7495 29.8644 20.7939 29.9063 20.8113 29.9697L21.1465 31.1687C21.3572 31.2002 21.5678 31.2177 21.7821 31.2371L21.2349 29.5422C21.4066 29.4927 21.5738 29.4315 21.7418 29.3729C21.9112 29.3171 22.0756 29.2483 22.2414 29.1839C22.0463 29.1776 21.8558 29.1736 21.6635 29.156L21.3984 29.2487C21.3104 29.2802 21.2202 29.3045 21.1309 29.3329C21.0916 29.3239 21.0604 29.3167 21.0375 29.3095C20.9551 29.2456 20.9047 29.1988 20.886 29.17C20.7852 29.1664 20.6826 29.1556 20.5814 29.1461C20.6309 29.3234 20.6909 29.4823 20.7623 29.6223C20.6845 29.5908 20.5965 29.5728 20.4985 29.5683C20.4496 29.5665 20.3983 29.5683 20.3438 29.5723C20.2893 29.5746 20.232 29.5809 20.172 29.5903Z" fill="#079948"/>
<path d="M24.3543 29.3982C24.1683 29.3865 23.9591 29.4004 23.7264 29.4378C23.6083 29.4531 23.4842 29.4742 23.3546 29.5012C23.29 29.5156 23.2232 29.5305 23.155 29.5453C23.0858 29.5597 23.0153 29.575 22.9434 29.5921C23.291 29.3054 23.6321 29.0215 23.9838 28.7582L24.3543 29.3982ZM23.8908 30.0422C23.954 29.9535 23.9559 29.891 23.8977 29.8532C23.851 29.8248 23.7754 29.8185 23.671 29.8352C23.5671 29.8518 23.4631 29.8851 23.3578 29.936C23.2355 29.9895 23.1394 30.053 23.0684 30.1259C22.997 30.1993 22.9713 30.26 22.9924 30.3086C23.0144 30.359 23.0817 30.3829 23.1962 30.3797C23.3097 30.3757 23.4393 30.3446 23.579 30.2794C23.7232 30.2096 23.8272 30.1304 23.8908 30.0422ZM25.0984 27.6133C24.9029 27.6542 24.7114 27.6952 24.52 27.7312C23.4714 28.426 22.3192 28.9675 21.1135 29.3383C21.2106 29.3482 21.3091 29.3599 21.4071 29.3676L21.702 29.3869C22.4269 29.1317 23.1298 28.8149 23.7997 28.4413L23.8263 28.4868C23.2223 28.9396 22.5876 29.4198 21.8883 29.922C22.0005 29.9405 22.115 29.9621 22.2281 29.9769L22.5711 30.0206C22.7447 29.9603 22.9118 29.8986 23.0789 29.8487C23.1623 29.823 23.2465 29.8019 23.329 29.7798C23.4109 29.7564 23.4924 29.7357 23.5744 29.7172C23.8478 29.6592 24.0818 29.6245 24.2865 29.6331C24.3025 29.6331 24.357 29.6385 24.4504 29.6488C24.5448 29.6596 24.6748 29.6691 24.8479 29.6835C24.9587 29.6628 25.0718 29.6425 25.1836 29.6196L24.2627 28.1695L24.6858 27.899" fill="#079948"/>
<path d="M2.51584 14.9821C2.50164 15.0815 2.49432 15.1751 2.49661 15.2629C2.5021 15.3507 2.51492 15.4326 2.53553 15.5077C2.57171 15.6288 2.63582 15.7386 2.72878 15.8363C2.82128 15.9344 2.9124 15.9848 3.00124 15.9911C3.13175 16.0001 3.24348 15.92 3.33507 15.7544C3.35842 15.717 3.37216 15.6747 3.37674 15.6279C3.38361 15.5653 3.36163 15.4591 3.32133 15.307C3.2847 15.1553 3.26867 15.0622 3.27325 15.0311C3.28286 14.9641 3.30164 14.9326 3.32957 14.9366C3.36804 14.942 3.4381 15.0415 3.54022 15.2274C3.59334 15.3286 3.63867 15.4114 3.6776 15.4776C3.7156 15.5437 3.74262 15.5928 3.75911 15.6252L3.94686 15.4393C4.01096 15.3786 4.07828 15.3187 4.14376 15.2602C4.01051 15.0361 3.8887 14.8615 3.77925 14.7435C3.67393 14.627 3.57685 14.5662 3.48756 14.5662C3.36209 14.568 3.25356 14.6166 3.17708 14.7152C3.10015 14.8133 3.04703 14.9605 3.01864 15.1544C3.00857 15.2305 2.99987 15.2989 3.00353 15.3601C2.88081 15.2242 2.84463 15.0235 2.88172 14.7629C2.89042 14.7057 2.90553 14.6486 2.93118 14.5928C2.95774 14.5365 2.99208 14.4812 3.03375 14.4263C3.11023 14.3281 3.2215 14.2426 3.36712 14.172C3.5132 14.1013 3.62951 14.0775 3.71652 14.0959L4.83065 14.3624C4.97077 14.2512 5.11639 14.1454 5.25698 14.0424L3.07955 13.505L3.13312 13.2894C3.15281 13.2179 3.17525 13.1468 3.19632 13.0761L3.32408 12.6499C3.18991 12.7588 3.05436 12.8704 2.91836 12.9852C2.89546 13.0572 2.87302 13.1279 2.85287 13.1976C2.83593 13.2678 2.81944 13.3371 2.80342 13.4042C2.78189 13.4555 2.76495 13.4838 2.75213 13.4893C2.65413 13.5262 2.5827 13.5185 2.53874 13.464L2.2507 13.7422C2.55293 13.8074 2.77823 13.8475 2.92614 13.8632C3.03558 13.8749 3.129 13.8853 3.20685 13.8934C3.02643 13.9389 2.88447 14.0532 2.76495 14.235C2.70588 14.3259 2.65413 14.4335 2.60926 14.5577C2.56988 14.6828 2.53874 14.8246 2.51584 14.9821Z" fill="#079948"/>
<path d="M4.0311 12.6359C3.94684 12.658 3.86991 12.6584 3.80076 12.6359C3.72704 12.6121 3.66568 12.5432 3.61805 12.4267C3.57089 12.3105 3.57272 12.1805 3.62309 12.0378C3.6872 11.8744 3.80031 11.7448 3.95554 11.6508C4.04759 11.5945 4.13551 11.5612 4.21931 11.55C4.30494 11.5396 4.38645 11.5513 4.46292 11.5842L5.54088 12.0437C5.6952 11.9627 5.84769 11.8848 5.99835 11.8101L4.02148 10.8915C4.08193 10.7547 4.15566 10.6238 4.22389 10.4905L4.32784 10.2916C4.36218 10.225 4.39698 10.1588 4.43591 10.0949C4.35577 10.1336 4.27884 10.175 4.20236 10.2174L3.97065 10.3456C3.91387 10.4563 3.85388 10.5652 3.79985 10.6773C3.72979 10.7372 3.67987 10.775 3.65057 10.7894C3.62126 10.8038 3.57684 10.8069 3.51731 10.7984C3.48205 10.7966 3.41702 10.8209 3.3204 10.8726C3.26453 10.9091 3.20913 10.9442 3.15463 10.9775C3.44633 11.1215 3.65102 11.2084 3.76779 11.2408C3.87174 11.2678 3.96424 11.2921 4.04621 11.3137C3.8232 11.3591 3.65469 11.4424 3.53059 11.5549C3.5109 11.5738 3.45824 11.6292 3.37215 11.7223C3.32956 11.7777 3.28743 11.8474 3.25675 11.9348C3.23294 12.0023 3.2105 12.0815 3.19035 12.1724C3.16333 12.2943 3.15463 12.4091 3.16333 12.5158C3.17158 12.6224 3.20546 12.7237 3.25263 12.8155C3.34009 12.9798 3.46602 13.0824 3.62904 13.1287C3.78977 13.1742 3.94684 13.1508 4.09796 13.063C4.18176 13.0153 4.25045 12.9492 4.31914 12.87C4.38645 12.7899 4.44461 12.6935 4.4936 12.5792C4.52337 12.5126 4.54352 12.4456 4.55497 12.3776C4.56779 12.3105 4.57466 12.243 4.57054 12.1742C4.56184 12.0189 4.51055 11.9208 4.41484 11.8821C4.38141 11.8686 4.34203 11.8659 4.29715 11.8731C4.15291 11.896 4.0453 11.9919 3.97844 12.1589C3.90242 12.3736 3.92944 12.5027 4.05858 12.5464C4.08239 12.5545 4.10849 12.5635 4.13734 12.5734C4.1149 12.604 4.07918 12.6247 4.0311 12.6359Z" fill="#079948"/>
<path d="M5.79047 8.4959C5.77811 8.41084 5.79047 8.31948 5.8271 8.22317C5.86374 8.12686 5.92235 8.02334 6.01302 7.92163C6.09407 7.82802 6.20443 7.75511 6.34227 7.70606C6.31525 7.93378 6.28732 8.15431 6.27038 8.37708C6.09774 8.30103 5.93701 8.34108 5.79047 8.4959ZM6.30747 7.37167C6.18749 7.41262 6.08308 7.47653 5.98097 7.54989C5.87977 7.62415 5.78635 7.71236 5.70072 7.81362C5.54319 8.01389 5.43649 8.22092 5.37971 8.42704C5.32934 8.63812 5.33026 8.85009 5.38154 9.05846C5.39711 9.11787 5.4223 9.15928 5.45664 9.18223C5.50289 9.21283 5.56609 9.21283 5.64577 9.18223C5.72545 9.15208 5.78314 9.10212 5.82024 9.03146C5.9022 8.82174 5.95761 8.71327 5.96998 8.69752C6.02218 8.62686 6.0927 8.62461 6.18108 8.69122C6.21634 8.71822 6.23328 8.74613 6.23191 8.77448C6.23054 8.9059 6.22504 9.03191 6.23054 9.16423C6.30106 9.10347 6.3789 9.04901 6.45309 8.99276L6.67701 8.82579C6.67976 8.62641 6.6967 8.43334 6.71273 8.23307L6.73929 7.93198C6.74799 7.82982 6.76356 7.73306 6.77684 7.6318C6.89315 7.59399 7.04335 7.60434 7.22561 7.666L7.99034 8.43514C8.09337 8.42209 8.1813 8.40589 8.26281 8.39284C8.34386 8.37934 8.41301 8.36403 8.47116 8.34693L6.95314 6.84016C7.05892 6.73934 7.16333 6.63628 7.27048 6.53682L7.60019 6.24744C7.43167 6.27039 7.26087 6.29514 7.08823 6.32215C7.0548 6.34195 6.99298 6.4 6.89819 6.49046C6.84049 6.54627 6.79607 6.58858 6.76585 6.61828L6.67518 6.65338C6.63305 6.65968 6.58405 6.64168 6.52819 6.59938C6.50941 6.59848 6.49247 6.59758 6.47873 6.59578C6.37341 6.63088 6.27404 6.67319 6.17146 6.71369L6.74387 7.18895L6.93025 7.30596C6.72967 7.27266 6.52223 7.29426 6.30747 7.37167Z" fill="#079948"/>
<path d="M8.59617 8.45631C8.47253 8.33389 8.37316 8.25694 8.29669 8.22723C8.25227 8.20878 8.19503 8.19528 8.12451 8.18718C8.05353 8.17908 7.96927 8.17683 7.87494 8.18403C7.79297 8.17773 7.66063 8.21283 7.47471 8.29249C7.42526 8.32129 7.37672 8.35145 7.32955 8.38385C7.28376 8.4176 7.23934 8.45316 7.19538 8.49006C7.10792 8.56387 7.02366 8.64353 6.94398 8.72949C6.92383 8.75109 6.90414 8.77225 6.88491 8.7925C6.86705 8.8141 6.84965 8.83435 6.8327 8.85461C6.79836 8.89421 6.76631 8.93156 6.73608 8.96622C6.67609 9.03598 6.62389 9.09493 6.57947 9.14399C6.48926 9.24075 6.43706 9.30016 6.4137 9.31636C6.21863 9.45092 6.05835 9.47973 5.93655 9.39737C5.91365 9.38207 5.89396 9.35236 5.87793 9.30826C5.71354 9.36676 5.62149 9.40637 5.61005 9.42707C5.59951 9.44372 5.59768 9.46173 5.60547 9.48063C5.62928 9.50988 5.65172 9.53148 5.67232 9.54499C5.75475 9.61249 5.81291 9.65705 5.84817 9.67955C5.97455 9.76146 6.1133 9.79161 6.27083 9.77946C6.40912 9.76776 6.54788 9.71015 6.68663 9.60619C6.81256 9.51033 6.93024 9.40052 7.03007 9.26505C7.20088 9.02247 7.34375 8.85956 7.43121 8.75604C7.5173 8.65613 7.59973 8.57692 7.68353 8.52427C7.7655 8.46981 7.84289 8.43651 7.91524 8.4248C7.94638 8.4239 8.04437 8.43381 8.20648 8.45766C8.36858 8.48106 8.50092 8.48466 8.59617 8.45631Z" fill="#079948"/>
<path d="M9.16581 5.74068C9.13605 5.74023 9.10628 5.75013 9.07743 5.77173C9.0582 5.79289 9.02248 5.83879 8.97119 5.91035C8.82099 6.12998 8.72117 6.25329 8.67263 6.29424C8.58928 6.36085 8.52655 6.3685 8.48488 6.3172C8.45374 6.27849 8.44046 6.18263 8.44779 6.02646C8.45511 5.86985 8.48808 5.77263 8.53525 5.72673C8.6653 5.73393 8.73857 5.74068 8.75689 5.74428C8.80359 5.74968 8.8645 5.74248 8.93914 5.72403C8.97669 5.71458 9.01744 5.70243 9.06141 5.68757C9.10628 5.67317 9.15528 5.65742 9.20794 5.63852C9.31235 5.60071 9.41675 5.55616 9.52025 5.5053C9.57199 5.47965 9.62328 5.4522 9.67502 5.42384C9.72814 5.39684 9.78172 5.36849 9.83484 5.33833C9.84858 5.57056 9.90536 5.75598 9.99832 5.8991C10.0556 5.98686 10.1568 6.08992 10.3001 6.20963C10.4141 6.3046 10.5281 6.40226 10.6412 6.50127C10.6605 6.51207 10.7113 6.50442 10.7924 6.47832C10.8643 6.45761 10.9169 6.43736 10.9508 6.41711C10.9691 6.40541 10.9861 6.38155 11.0025 6.3451C10.7557 6.20603 10.589 6.07642 10.5075 5.9414C10.4709 5.8802 10.4352 5.80684 10.4013 5.72133C10.3491 5.62727 10.3308 5.49585 10.3495 5.32438C10.3679 5.16731 10.4132 5.0233 10.4846 4.89143C10.361 4.87658 10.2456 4.86353 10.138 4.85273C10.0299 4.84103 9.93375 4.83832 9.844 4.83292C9.62603 5.0377 9.47857 5.16191 9.40485 5.22087C9.32609 5.27983 9.20886 5.33923 9.05133 5.40044C8.88236 5.4666 8.7894 5.48955 8.76284 5.45355C8.75826 5.4468 8.75918 5.43419 8.76604 5.41529C8.80451 5.34868 8.83931 5.30053 8.8677 5.26903C9.43828 4.87568 10.0414 4.53004 10.6619 4.21905C10.4869 4.1934 10.3152 4.179 10.1394 4.1637L9.90353 4.29016L9.78584 4.35362L9.6709 4.42203L9.21206 4.69611C8.91441 4.89143 8.61401 5.08315 8.3301 5.29783C7.75724 5.71863 7.2091 6.17498 6.7063 6.67544C6.88168 6.64033 7.05524 6.60793 7.22696 6.57733C7.36434 6.45221 7.50538 6.33115 7.64459 6.20828L7.74945 6.11647L7.85798 6.02916L8.07595 5.85499C8.06725 5.8901 8.05992 5.9171 8.05397 5.936C8.00223 6.17903 8.02237 6.34645 8.10709 6.44456C8.13411 6.47607 8.16754 6.50577 8.20738 6.53412C8.3475 6.62368 8.53433 6.63988 8.76421 6.58633C8.81642 6.56788 8.86587 6.54492 8.91258 6.51927C8.96112 6.49497 9.00737 6.46706 9.05087 6.43511C9.15391 6.36085 9.26381 6.24159 9.38653 6.07957C9.39935 6.06472 9.4108 6.05392 9.42042 6.04762C9.44652 6.03051 9.47537 6.02871 9.50651 6.04267C9.53765 6.05707 9.561 6.07507 9.57657 6.09757C9.62007 6.15968 9.58848 6.24834 9.49231 6.37435C9.42133 6.47067 9.33616 6.55843 9.23587 6.63808C9.17634 6.68804 9.10445 6.72314 9.02752 6.756C8.94967 6.78705 8.86175 6.80865 8.76284 6.82081C8.59478 6.83926 8.44229 6.82711 8.30904 6.78705C8.25775 6.76995 8.15929 6.72224 8.01184 6.64619C7.90744 6.59443 7.80761 6.50757 7.71373 6.38426C7.67435 6.38966 7.57498 6.42566 7.41288 6.49407C7.53743 6.62728 7.65054 6.74295 7.7522 6.84106C7.85432 6.93872 7.9862 7.01973 8.14556 7.08544C8.31361 7.15429 8.47435 7.19165 8.62775 7.19615C8.80451 7.2047 8.97165 7.19165 9.12368 7.14664C9.20016 7.12414 9.27297 7.09444 9.34349 7.05798C9.4163 7.02423 9.4859 6.98283 9.55276 6.93377C9.70113 6.82711 9.80462 6.69569 9.87788 6.55257C9.94886 6.40631 9.96947 6.26229 9.93879 6.12097C9.92597 6.06697 9.9049 6.01791 9.87605 5.97426C9.78905 5.84374 9.62969 5.76273 9.38928 5.73663C9.2954 5.72628 9.21893 5.72853 9.16077 5.74383" fill="#079948"/>
<path d="M10.111 4.17855C9.97406 4.23751 9.78081 4.33832 9.54865 4.50439C9.7254 4.50799 9.89804 4.51159 10.0748 4.52599C10.1151 4.50439 10.1444 4.48864 10.1627 4.47874C10.3212 4.39458 10.4801 4.37208 10.6403 4.42113C10.7063 4.44093 10.758 4.48819 10.7956 4.5611L11.5095 5.94816C11.667 5.98596 11.8213 6.02467 11.9724 6.06427L11.0117 4.05164C11.1413 3.98638 11.2773 3.93463 11.4101 3.87657C11.5443 3.82166 11.6762 3.76091 11.8122 3.71005C11.6404 3.67179 11.4701 3.64389 11.2947 3.61239C11.1495 3.6745 11.0021 3.733 10.8611 3.80411C10.8235 3.79421 10.7937 3.78611 10.7713 3.77846C10.6783 3.70375 10.6184 3.65019 10.5923 3.61689L10.3056 3.60834C10.4109 3.81356 10.5199 3.99628 10.6298 4.15695C10.5524 4.12455 10.4682 4.107 10.3825 4.11195C10.2964 4.11645 10.2058 4.13895 10.111 4.17855Z" fill="#079948"/>
<path d="M14.7195 3.92787C14.7031 3.83921 14.6669 3.75325 14.611 3.67134C14.4979 3.51427 14.3619 3.40581 14.2003 3.33695C14.1197 3.3023 14.0331 3.27844 13.9402 3.26449C13.8477 3.25144 13.7483 3.24424 13.6457 3.25729C13.5294 3.27124 13.4328 3.28834 13.3568 3.3086C13.2542 3.33605 13.1621 3.37205 13.0802 3.41661C12.9996 3.46476 12.93 3.52147 12.8704 3.58628C12.7413 3.72219 12.7015 3.85451 12.7459 3.98412C12.7564 4.01518 12.7743 4.04848 12.7985 4.08404C12.8654 4.17495 12.9501 4.23255 13.0522 4.25596C13.1031 4.26811 13.1585 4.27171 13.2185 4.26631C13.2785 4.26091 13.343 4.24741 13.414 4.22985C13.7396 4.14344 13.8774 3.99133 13.8275 3.77485C13.8087 3.70059 13.7689 3.64028 13.7071 3.59438C13.7442 3.57863 13.7744 3.56783 13.7977 3.56153C13.9228 3.53317 14.0414 3.55612 14.1513 3.62723C14.2465 3.69069 14.3033 3.76855 14.323 3.85946C14.3472 3.97197 14.2996 4.08494 14.1842 4.19655C14.0221 4.34552 13.8651 4.45083 13.7007 4.49403C13.6086 4.51879 13.5179 4.53409 13.4287 4.54084C13.3398 4.55074 13.2533 4.55344 13.1667 4.54624C12.995 4.53319 12.8242 4.48053 12.657 4.40087C12.5137 4.33607 12.3603 4.24515 12.195 4.12949C12.13 4.08134 11.9899 3.97737 11.7742 3.81761L11.4417 3.86351C11.5516 3.96837 11.673 4.07594 11.8048 4.1862C11.8708 4.24155 11.9395 4.29736 12.0105 4.35452C12.0828 4.41257 12.157 4.47198 12.2335 4.53364C12.3338 4.6169 12.4908 4.70331 12.6978 4.79422C12.7702 4.82662 12.8333 4.85228 12.8888 4.87388C12.9446 4.89683 12.9918 4.91393 13.0307 4.92473C13.1447 4.95804 13.2711 4.97064 13.4112 4.96209C13.55 4.95084 13.6819 4.93869 13.8019 4.90583C13.8957 4.88063 13.9892 4.84372 14.0826 4.79467C14.1769 4.74651 14.2726 4.69296 14.3688 4.62365C14.508 4.52419 14.6069 4.41302 14.666 4.29826C14.7255 4.18485 14.7443 4.06153 14.7195 3.92787ZM15.2974 2.82524L15.046 2.71093L14.7914 2.60696C14.1041 2.70958 13.4282 2.877 12.7637 3.07592C12.5989 3.12902 12.4331 3.17988 12.2683 3.23479L11.7801 3.41481C11.6162 3.47151 11.4591 3.54487 11.2988 3.61058L11.0598 3.71184C10.9792 3.7447 10.9027 3.7852 10.824 3.82166C10.9124 3.83336 10.9994 3.84371 11.0868 3.85721L11.3497 3.90267C11.9752 3.62678 12.625 3.40716 13.2844 3.22579L13.5326 3.15963C13.6155 3.13803 13.6975 3.11372 13.7817 3.09752L14.2836 2.98861C14.3669 2.96881 14.4517 2.9562 14.5359 2.9418L14.7891 2.89905L15.0428 2.85674C15.1276 2.84459 15.2127 2.83604 15.2974 2.82524Z" fill="#079948"/>
<path d="M16.6057 3.23028C16.7339 3.30679 16.8232 3.35225 16.8754 3.36755L16.869 3.35945C16.9075 3.3833 16.9661 3.404 17.0449 3.422C17.0842 3.43101 17.1287 3.43911 17.1781 3.44676C17.2271 3.45666 17.2816 3.46611 17.3411 3.47511C17.5046 3.3617 17.5939 3.29914 17.6022 3.28834C17.7006 3.21138 17.7533 3.13487 17.756 3.05791C17.7579 3.01426 17.7304 2.9355 17.6722 2.82163C17.6099 2.69427 17.5527 2.62946 17.5023 2.62811L17.5005 2.71047C17.8998 2.71272 18.2982 2.74783 18.6961 2.78023C18.5583 2.67087 18.4173 2.566 18.2735 2.45844C16.9336 2.35583 15.5813 2.44719 14.2616 2.69877C14.4329 2.76178 14.6037 2.83424 14.7699 2.90219L15.0552 2.85494L15.3428 2.81983L15.6299 2.78563C15.678 2.78023 15.7256 2.77348 15.7737 2.76943L15.9179 2.75908C16.1107 2.74558 16.303 2.72982 16.4954 2.71902L17.0742 2.70507C17.1369 2.70417 17.1786 2.71317 17.1992 2.73612C17.2578 2.80048 17.2862 2.85314 17.2857 2.89454C17.2848 3.02146 17.2106 3.10022 17.065 3.14927C16.9917 3.09347 16.8443 3.02146 16.6185 2.9337C16.5755 2.91615 16.532 2.90129 16.488 2.88869C16.4441 2.87654 16.3996 2.86889 16.3543 2.86259C16.2646 2.85044 16.173 2.84774 16.0796 2.85449C15.7512 2.87339 15.563 3.00706 15.5154 3.22128C15.492 3.33199 15.53 3.422 15.6262 3.49176C15.7219 3.56197 15.8469 3.58537 16.0045 3.57637C16.107 3.56917 16.1963 3.52912 16.2755 3.45621C16.3543 3.3833 16.3923 3.30859 16.3882 3.23208C16.3859 3.19653 16.3722 3.16457 16.3461 3.13622C16.4203 3.15242 16.5073 3.18168 16.6057 3.23028Z" fill="#079948"/>
<path d="M17.2047 3.45531C17.1923 3.45531 17.1946 3.47286 17.2102 3.50887C17.2381 3.56423 17.2514 3.60293 17.251 3.62498L17.2473 4.38512C17.229 4.37072 17.2161 4.36082 17.2088 4.35542C17.1085 4.28926 16.9551 4.26226 16.7495 4.26676C16.7161 4.26721 16.6598 4.26856 16.5815 4.27036C16.2183 4.32076 15.9898 4.32751 15.8914 4.28611C15.7783 4.24245 15.7132 4.15379 15.6977 4.01923C15.6903 3.95172 15.7032 3.86441 15.7389 3.7564L15.5539 3.68889C15.509 3.67764 15.4756 3.69384 15.4531 3.73795C15.3849 3.88151 15.3611 4.01248 15.3776 4.13219C15.3977 4.27576 15.477 4.40582 15.6102 4.52239C15.6821 4.59125 15.7975 4.6376 15.9569 4.66325C16.0984 4.69476 16.2325 4.70286 16.3621 4.68801C16.3891 4.68486 16.4262 4.67856 16.4739 4.66955C16.521 4.6601 16.5792 4.6484 16.6479 4.6385C16.7701 4.6169 16.8663 4.6052 16.9354 4.6034C17.0921 4.59935 17.2102 4.6322 17.289 4.71096C17.3462 4.77802 17.3879 4.83562 17.4153 4.88288L17.6077 5.0233L17.6493 3.83651C17.658 3.59528 17.6548 3.46116 17.6397 3.43326C17.5546 3.25144 17.3796 3.15288 17.12 3.15198C16.9419 3.15648 16.8246 3.17988 16.7692 3.22219C16.6497 3.27439 16.5595 3.3149 16.4967 3.3437C16.3662 3.45756 16.2866 3.53317 16.2536 3.57143C16.1881 3.65559 16.1602 3.7456 16.167 3.84101C16.1712 3.89276 16.1858 3.94632 16.211 4.00078C16.2362 4.05523 16.2943 4.10114 16.3855 4.13849C16.4313 4.15694 16.4761 4.17045 16.5201 4.1781C16.5645 4.1862 16.608 4.19205 16.6511 4.1907C16.7601 4.188 16.8576 4.16054 16.9455 4.10789C17.0334 4.05523 17.0779 3.98863 17.0774 3.90942C17.0769 3.85181 17.0495 3.80185 16.9945 3.7591C16.94 3.71679 16.869 3.69654 16.7834 3.69834C16.7678 3.69879 16.7482 3.69924 16.7248 3.70014C16.7431 3.65919 16.771 3.62183 16.8095 3.58853C16.8983 3.53002 16.967 3.49087 17.0142 3.47061C17.0774 3.45306 17.1214 3.44361 17.1452 3.44316L17.1388 3.43911C17.1607 3.44451 17.1827 3.44901 17.2047 3.45531Z" fill="#079948"/>
<path d="M19.9252 2.96028C19.8011 2.84101 19.6738 2.7213 19.5442 2.60158C19.4554 2.58403 19.3652 2.57368 19.2754 2.56243L19.0057 2.52868L18.9553 2.35676C18.9233 2.25909 18.8564 2.14658 18.752 2.01877C18.6467 1.89635 18.5354 1.80094 18.4191 1.73163C18.3133 1.66908 18.213 1.61597 18.1192 1.57366C18.072 1.55251 18.0267 1.53316 17.9827 1.51786C17.9387 1.50346 17.8966 1.49176 17.8559 1.4823C17.6777 1.4436 17.5142 1.4139 17.3668 1.39319C17.2931 1.38329 17.2235 1.37384 17.158 1.37024C17.092 1.36754 17.0307 1.36664 16.9734 1.36799C16.8154 1.37114 16.6584 1.38599 16.5036 1.4121C16.4262 1.4238 16.3497 1.44225 16.2737 1.46475C16.1982 1.48635 16.1226 1.51111 16.0484 1.53811C15.7902 1.63352 15.6706 1.74288 15.6825 1.86575C15.6949 1.99086 15.7915 2.08087 15.9687 2.13533C16.146 2.19069 16.3177 2.21634 16.4867 2.22219C16.4995 2.22444 16.6904 2.22624 17.0577 2.22894C17.2129 2.22804 17.3292 2.24874 17.4066 2.26765C17.484 2.2879 17.522 2.314 17.5216 2.34505C17.5207 2.37566 17.4268 2.43462 17.2441 2.52373L17.8091 2.53768C17.8412 2.47827 17.8591 2.42381 17.8609 2.37431C17.8664 2.10473 17.6205 1.94451 17.1209 1.9112L17.0417 1.90895C16.9203 1.90445 16.7935 1.90175 16.6607 1.9004C16.5943 1.89995 16.5265 1.8995 16.4578 1.89905C16.3887 1.89905 16.3181 1.90445 16.2462 1.90715C16.0832 1.91615 15.9999 1.90175 15.9967 1.8635C15.9926 1.81129 16.1093 1.76179 16.3488 1.71498C16.5265 1.68258 16.6923 1.67133 16.8443 1.66683C17.2006 1.65197 17.5046 1.69833 17.7519 1.76224C17.9992 1.82389 18.1897 1.93461 18.3225 2.06242C18.474 2.20824 18.5524 2.31175 18.5643 2.37296L18.5927 2.48232L18.1553 2.44947L17.9369 2.43417L17.7176 2.42831C17.7968 2.47872 17.8755 2.52733 17.9529 2.57908L18.1833 2.7402L18.54 2.76675L18.3637 4.63672C18.48 4.73798 18.5917 4.85455 18.7016 4.96346L18.97 2.81401C19.1298 2.83516 19.2901 2.85181 19.449 2.87702" fill="#079948"/>
<path d="M22.4049 5.13763C22.349 4.98461 22.262 4.84509 22.1503 4.70423C22.0944 4.63402 22.0317 4.56426 21.963 4.49495C21.9282 4.46075 21.8925 4.4252 21.854 4.39279C21.8155 4.36039 21.7748 4.32888 21.7331 4.29738C21.9204 4.27623 22.0972 4.27803 22.2693 4.28208C22.3554 4.28433 22.4401 4.28883 22.523 4.29468C22.5642 4.29783 22.6055 4.30098 22.6458 4.30548C22.686 4.31133 22.7254 4.31763 22.7644 4.32348L22.4049 5.13763ZM24.1235 4.43375C24.042 4.28343 23.9572 4.13401 23.8702 3.98234C22.8747 3.48639 21.8224 3.09709 20.7371 2.83966C20.858 2.96252 20.9725 3.09754 21.0856 3.22806C21.7272 3.39548 22.3499 3.625 22.9603 3.87883L22.9324 3.94274C22.8944 3.93509 22.8555 3.92744 22.8156 3.91979C22.7758 3.91304 22.7341 3.90854 22.692 3.90268C22.6077 3.89233 22.5203 3.88288 22.4292 3.87478C22.338 3.86623 22.2442 3.85903 22.1471 3.85273C22.0504 3.84508 21.947 3.84823 21.8426 3.84733C21.6168 3.85138 21.3274 3.87208 20.9757 3.94499L21.1227 4.20602L21.1937 4.33563L21.2614 4.46975C21.4222 4.53366 21.5664 4.60702 21.6919 4.68893C21.8174 4.77174 21.9209 4.8739 22.0074 4.97786C22.0935 5.08362 22.1608 5.19659 22.2089 5.31855C22.2551 5.44456 22.2822 5.57778 22.2904 5.7182C22.328 5.83251 22.3632 5.94592 22.3971 6.05844L23.3551 4.0539C23.487 4.10926 23.6129 4.17677 23.7411 4.24022" fill="#079948"/>
<path d="M23.8473 3.97062C23.7837 3.93147 23.7036 3.88736 23.6056 3.84056C23.5057 3.7978 23.3885 3.75145 23.2543 3.70239C23.351 3.84866 23.4471 3.98998 23.5369 4.13759C23.5781 4.1583 23.6079 4.17315 23.6262 4.1826C23.7864 4.26316 23.8941 4.38197 23.9458 4.53724C23.9678 4.60025 23.9582 4.66776 23.9188 4.73976L23.1655 6.10702C23.2241 6.25509 23.2786 6.40406 23.3313 6.54987L24.466 4.62725C24.7215 4.76452 24.9624 4.92473 25.2078 5.07775C25.1396 4.92113 25.0691 4.76272 24.9958 4.60295C24.8644 4.51609 24.7238 4.44273 24.5874 4.36397C24.5741 4.32797 24.5645 4.29871 24.558 4.27621C24.5677 4.1583 24.5782 4.07909 24.5915 4.03903C24.5402 3.96027 24.4894 3.87926 24.4358 3.80095C24.324 4.00393 24.2343 4.1943 24.1624 4.37522C24.1276 4.2141 24.0209 4.07999 23.8473 3.97062Z" fill="#079948"/>
<path d="M25.69 5.70153C25.6516 5.75238 25.6213 5.78209 25.5993 5.79064C25.5531 5.80549 25.4688 5.80144 25.3489 5.77848C25.2289 5.75553 25.1451 5.72763 25.0961 5.69342C25.0306 5.64752 25.021 5.59486 25.0668 5.53546C25.1268 5.45535 25.2064 5.41799 25.3077 5.42384C25.4647 5.43554 25.5806 5.46705 25.6511 5.51655C25.7289 5.57101 25.7422 5.63267 25.69 5.70153ZM25.032 7.92749L25.2248 7.70561C25.1991 7.39597 25.1524 7.15114 25.1153 6.94952C25.0764 6.74925 25.0402 6.60073 25.0063 6.51297C24.8919 6.19253 24.7792 5.9108 24.6606 5.69928L24.3433 6.17768C24.3863 6.25104 24.4275 6.3208 24.4655 6.38831C24.5012 6.45851 24.5356 6.52512 24.5681 6.58903C24.6322 6.71684 24.6876 6.83206 24.7348 6.93557C24.7591 6.98643 24.7797 7.03638 24.798 7.08499C24.8163 7.13269 24.8328 7.17725 24.8479 7.2191C24.8777 7.30281 24.9001 7.37437 24.9166 7.43513L24.9798 7.67906C24.9986 7.76187 25.015 7.84558 25.032 7.92749ZM25.7097 6.18578C25.8228 6.16148 25.9071 6.11647 25.9607 6.04942C26.0477 5.9414 26.0664 5.80054 26.0142 5.62367C25.9643 5.44455 25.8466 5.30143 25.6786 5.18262C25.5989 5.12681 25.5155 5.08495 25.429 5.05705C25.3425 5.0287 25.2486 5.0206 25.1547 5.02285C24.9651 5.02915 24.8369 5.08855 24.7668 5.19747C24.6904 5.31628 24.6872 5.4594 24.7526 5.62502C24.7847 5.70873 24.8323 5.78073 24.8877 5.85229C24.9431 5.9234 25.0118 5.98731 25.0933 6.04447C25.2023 6.12052 25.2948 6.16643 25.3713 6.18263C25.4844 6.20828 25.5961 6.21054 25.7097 6.18578Z" fill="#079948"/>
<path d="M28.8937 8.5175C28.89 8.42794 28.8827 8.34063 28.874 8.25287L28.8479 7.98779L28.7018 7.80506L28.629 7.71415L28.5516 7.62639L28.2425 7.27535L28.1651 7.18804L28.0836 7.10433L27.9206 6.93601L27.7576 6.76814L27.6765 6.68398L27.5909 6.60432L27.2493 6.28389L27.1636 6.20378L27.0748 6.12772L26.8962 5.9756L26.7176 5.82393L26.6288 5.74787L26.5363 5.67587L26.1649 5.38873C26.2267 5.5584 26.2858 5.72627 26.343 5.89234C26.9621 6.3892 27.5405 6.93376 28.0717 7.52108L27.8088 7.74971C27.8084 7.72856 27.807 7.7083 27.8047 7.68895C27.8038 7.6462 27.8038 7.60029 27.8043 7.55079C27.7859 7.45222 27.7301 7.35591 27.6431 7.25735C27.5964 7.20514 27.5295 7.16509 27.443 7.13764C27.3564 7.11018 27.2822 7.09848 27.2177 7.10568L27.2131 7.05033C27.1696 6.84735 27.0592 6.66373 26.8861 6.50576C26.7181 6.36535 26.5349 6.30054 26.3421 6.31404C26.1695 6.32169 26.0353 6.38695 25.9373 6.50396C25.9002 6.54852 25.87 6.59667 25.8471 6.64843C25.788 6.78525 25.7912 6.93691 25.8563 7.09893C25.9199 7.26185 26.0326 7.40272 26.1777 7.54493C26.3467 7.7047 26.5166 7.75736 26.6824 7.7137C26.7391 7.70065 26.7863 7.63404 26.8216 7.51253C26.866 7.36491 26.8243 7.23305 26.6984 7.11873C26.6173 7.04268 26.5312 6.99722 26.4406 6.98237C26.3476 6.96977 26.2766 6.99182 26.2267 7.04718C26.2043 7.07148 26.1887 7.09983 26.18 7.13224C26.1035 7.01657 26.1022 6.91576 26.1768 6.83115C26.2354 6.76499 26.322 6.73979 26.4378 6.75689C26.496 6.76544 26.5518 6.78255 26.605 6.80775C26.6567 6.8352 26.7062 6.87076 26.7533 6.91441C26.8701 7.02422 26.9397 7.13674 26.9603 7.2506C26.9699 7.27985 26.9768 7.34871 26.9713 7.46392C26.9663 7.51838 26.9305 7.55259 26.8646 7.56789L27.1252 7.72361C27.2012 7.61559 27.2625 7.55754 27.3102 7.55123C27.3683 7.54718 27.4187 7.56744 27.4613 7.61199C27.5153 7.66825 27.5506 7.73711 27.5597 7.82487C27.5694 7.91128 27.5542 7.97158 27.5144 8.00624L26.6347 8.77178C26.6475 8.92795 26.6581 9.08231 26.6668 9.23398L28.3593 7.84737C28.4536 7.95493 28.5392 8.06925 28.6294 8.17996L28.7632 8.34738C28.8085 8.40273 28.8525 8.45899 28.8937 8.5175Z" fill="#079948"/>
<path d="M28.8525 7.99996C28.7709 7.87664 28.6372 7.70652 28.4321 7.5094C28.4577 7.68132 28.4838 7.84874 28.498 8.02246C28.5269 8.05801 28.5475 8.08412 28.5603 8.09987C28.6711 8.23893 28.7187 8.3906 28.6986 8.55262C28.6894 8.62013 28.651 8.67819 28.5841 8.72679L27.312 9.65075C27.3005 9.80962 27.2873 9.96579 27.2726 10.1197L29.13 8.85146C29.1716 8.90996 29.2156 8.96712 29.2554 9.02698L29.6085 9.56839C29.6135 9.39827 29.6172 9.2259 29.619 9.05128L29.4903 8.85461L29.3534 8.66378C29.3566 8.62598 29.3603 8.59538 29.3644 8.57242C29.4235 8.46981 29.467 8.40275 29.4963 8.37215L29.4578 8.09222C29.2696 8.22903 29.1043 8.36495 28.9619 8.49861C29.004 8.3348 28.9633 8.17053 28.8525 7.99996Z" fill="#079948"/>
<path d="M30.4731 11.1769C30.501 11.0113 30.5276 10.8434 30.5532 10.6728C30.1979 9.95589 29.7844 9.26776 29.3186 8.61563C29.3251 8.7907 29.3319 8.96172 29.3273 9.13724C29.4785 9.36947 29.6337 9.599 29.7688 9.84067C29.5375 9.75831 29.3301 9.72321 29.1368 9.73581C28.9454 9.74706 28.7769 9.80062 28.6285 9.89288C28.2856 10.1071 28.1267 10.4194 28.0992 10.8285C28.096 10.8942 28.1047 10.9627 28.1257 11.0338C28.1363 11.0698 28.15 11.1062 28.1665 11.1436C28.1816 11.1818 28.199 11.221 28.2201 11.261C28.2837 11.3835 28.373 11.4753 28.4889 11.5378C28.6061 11.6004 28.7096 11.6121 28.8081 11.5662C28.8635 11.5401 28.9038 11.5032 28.9294 11.4541C28.9546 11.4055 28.9624 11.3461 28.9555 11.275C28.9656 11.2165 28.9523 11.1517 28.9157 11.0824C28.8882 11.0288 28.8484 10.9798 28.7971 10.9352C28.7293 10.878 28.6652 10.8465 28.6057 10.8398C28.5466 10.833 28.4944 10.8492 28.4486 10.8888C28.4275 10.9086 28.4051 10.9492 28.3794 11.0099C28.3538 11.0707 28.3401 11.1013 28.3428 11.0999C28.33 11.1067 28.3153 11.09 28.2938 11.0527C28.3565 11.1206 28.3923 11.1449 28.4055 11.1215C28.4023 11.1152 28.3964 11.104 28.3881 11.0882C28.3387 10.9919 28.3281 10.8789 28.3698 10.7385C28.4023 10.6238 28.4513 10.5315 28.5173 10.4631C28.5557 10.4239 28.607 10.3852 28.6716 10.3479C28.8204 10.2615 28.9775 10.2057 29.1442 10.1827C29.3054 10.1584 29.4693 10.1832 29.6374 10.2588C29.7225 10.2957 29.8031 10.3483 29.8851 10.4136C29.9666 10.4788 30.049 10.5567 30.1315 10.6476C30.2629 10.7889 30.371 10.969 30.4731 11.1769Z" fill="#079948"/>
<path d="M31.3738 13.8817C31.4356 13.7183 31.497 13.5527 31.557 13.3839C31.2717 12.288 30.8522 11.2264 30.3197 10.2245C30.3023 10.4019 30.2835 10.5765 30.2638 10.7484C30.3073 10.8303 30.343 10.9163 30.3829 11L29.32 11.4833C29.2788 11.671 29.238 11.8537 29.1918 12.0347C29.4153 12.054 29.6232 12.1206 29.8159 12.2354C30.0133 12.3483 30.1777 12.5162 30.3279 12.7291C30.1667 12.7403 30.0087 12.7723 29.8526 12.8236C29.6621 12.8862 29.4006 13.0324 29.0636 13.2489C29.0608 13.352 29.048 13.4573 29.0375 13.5612C29.3237 13.4087 29.4812 13.3268 29.5114 13.3218C29.5673 13.2935 29.6245 13.2705 29.6831 13.2534C29.9602 13.1706 30.316 13.198 30.7593 13.3682L30.8243 13.0446C30.8444 12.9361 30.8696 12.8245 30.8838 12.716C30.7758 12.5554 30.6723 12.4159 30.5738 12.297C30.5491 12.2669 30.5248 12.2385 30.501 12.2115C30.4763 12.1845 30.4506 12.1593 30.4254 12.135C30.376 12.0864 30.3274 12.0432 30.2807 12.0045C30.1026 11.8677 29.9712 11.7691 29.881 11.7052L30.5738 11.4163C30.9159 12.212 31.1842 13.0383 31.3738 13.8817Z" fill="#079948"/>
<path d="M31.72 16.9956C31.8139 16.8516 31.9082 16.7049 32.0016 16.5555L31.9938 16.2665C32.0048 16.199 32.025 16.1495 32.0598 16.118C32.079 16.1126 32.0959 16.1117 32.1106 16.1149C32.1495 16.1086 32.1834 16.0901 32.2118 16.0586C32.2599 15.9803 32.3176 15.8714 32.3854 15.7296L31.8963 15.8012L31.426 15.8997L31.4906 15.8277C31.7855 15.5181 31.9054 15.2746 31.8867 15.1211C31.883 15.0919 31.8693 15.0406 31.8459 14.9677C31.8239 14.9011 31.7992 14.8399 31.7722 14.7836C31.7424 14.7282 31.7108 14.6783 31.6774 14.6337C31.6101 14.5446 31.535 14.4776 31.4526 14.4317C31.4883 14.3961 31.5217 14.3461 31.5524 14.2813C31.5542 14.2764 31.5799 14.2143 31.6289 14.095C31.6605 13.9654 31.6554 13.8223 31.6197 13.6666L31.5739 13.4721C31.5583 13.4073 31.5437 13.3421 31.524 13.2782L31.4132 12.8938C31.3605 13.0621 31.3069 13.2273 31.2524 13.3902C31.3349 13.7255 31.3582 13.8367 31.3317 13.7201C31.3555 13.8326 31.3564 13.9339 31.3344 14.0221C31.3014 14.0878 31.2731 14.1369 31.2451 14.1715C31.1778 14.0568 31.0876 13.9618 30.9795 13.8875C30.8605 13.8034 30.7597 13.7728 30.6764 13.7926C30.5903 13.8128 30.5221 13.8686 30.4703 13.9573C30.419 14.0464 30.4071 14.1495 30.435 14.2687C30.4547 14.3506 30.4868 14.433 30.5436 14.5145C30.5994 14.5964 30.659 14.6558 30.7226 14.6922C30.6233 14.8313 30.5903 14.9794 30.6081 15.1432C30.6342 15.3444 30.7025 15.4659 30.8128 15.5086C30.8971 15.5428 30.9763 15.5446 31.0519 15.5127C31.1215 15.4816 31.1815 15.4191 31.2318 15.3246C31.257 15.2773 31.2959 15.1841 31.3486 15.0419C31.41 15.0581 31.4558 15.136 31.4851 15.2764C31.5011 15.3646 31.4608 15.4807 31.35 15.6211C31.2378 15.7611 31.1508 15.8313 31.0899 15.8363L29.7715 15.9231C29.6827 16.0599 29.5938 16.1936 29.505 16.3241L31.6971 16.2071C31.7095 16.4695 31.7122 16.7328 31.72 16.9956Z" fill="#079948"/>
<path d="M5.74925 20.231L2.48425 18.5528L4.01097 21.7594L4.70061 18.2863L2.14127 20.7004" fill="#EC1C24"/>
<path d="M7.75313 24.1159L4.14194 23.3976L6.51628 26.0597L6.19481 22.5349L4.42036 25.5543" fill="#EC1C24"/>
<path d="M29.3388 20.231L32.6038 18.5528L31.0771 21.7594L30.3874 18.2863L32.9472 20.7004" fill="#EC1C24"/>
<path d="M27.3354 24.1159L30.9466 23.3976L28.5718 26.0597L28.8932 22.5349L30.6677 25.5543" fill="#EC1C24"/>
<path d="M15.0053 21.3175V21.4547C15.0419 21.4097 15.0634 21.3643 15.0053 21.3175ZM15.9651 21.2652C15.9555 21.2688 15.9463 21.2724 15.9372 21.276C15.9477 21.367 15.955 21.4588 16.0255 21.5272C16.0352 21.5236 16.0443 21.5204 16.0535 21.5168C16.0237 21.4331 15.9944 21.349 15.9651 21.2652ZM17.3306 18.465C17.3902 18.4124 17.3998 18.2724 17.3517 18.2251C17.3247 18.199 17.299 18.2067 17.294 18.2395C17.2821 18.317 17.2899 18.393 17.3306 18.465ZM15.0859 21.9561C15.0909 22.0479 15.128 22.087 15.1834 22.0686C15.2745 22.0384 15.3272 21.9075 15.2828 21.8143C15.2288 21.8782 15.2086 21.9862 15.0859 21.9561ZM16.8136 18.2256C16.8979 18.2566 17.1012 18.2319 17.1598 18.1837C17.0614 18.0879 16.8471 18.114 16.8136 18.2256ZM16.195 17.7697C16.1931 17.7724 16.1918 17.7755 16.1899 17.7782C16.2925 17.825 16.3946 17.8741 16.4986 17.9173C16.538 17.934 16.5833 17.9443 16.625 17.9434C16.646 17.943 16.6666 17.911 16.6877 17.8935C16.668 17.8723 16.6506 17.8363 16.6282 17.8322C16.4844 17.8075 16.3392 17.7899 16.195 17.7697ZM17.9319 20.6428C17.9259 20.6428 17.9195 20.6433 17.914 20.6437C17.9076 20.6698 17.8975 20.6959 17.8957 20.722C17.8898 20.803 17.8952 20.8854 17.8815 20.9646C17.8641 21.0663 17.8527 21.177 17.8037 21.2648C17.6544 21.5339 17.4566 21.7675 17.2244 21.9705C17.196 21.9952 17.152 22.0015 17.1159 22.0177C17.1035 22.0231 17.0847 22.0321 17.0833 22.042C17.0751 22.0978 17.071 22.1546 17.0655 22.2108C17.0737 22.214 17.0824 22.2171 17.0911 22.2203C17.131 22.173 17.1662 22.1208 17.2116 22.0803C17.2725 22.0258 17.3357 21.9687 17.408 21.9358C17.4666 21.9088 17.5014 21.8841 17.5129 21.8188C17.5184 21.7887 17.5495 21.7626 17.571 21.736C17.5848 21.7198 17.6068 21.709 17.6173 21.6914C17.6475 21.641 17.6709 21.5861 17.7025 21.5371C17.7386 21.4808 17.7702 21.4115 17.8234 21.3791C17.8783 21.3454 17.9067 21.3062 17.9209 21.2513C17.9639 21.0803 17.9768 20.9066 17.9589 20.7306C17.9562 20.7009 17.941 20.6721 17.9319 20.6428ZM19.7132 19.1964C19.7178 19.1487 19.726 19.1005 19.7256 19.0528C19.7251 18.965 19.7155 18.8777 19.7173 18.7904C19.7187 18.7175 19.7572 18.6977 19.8144 18.7418C19.8524 18.7715 19.8877 18.8125 19.9092 18.8561C19.9903 19.0226 20.0644 19.1928 20.1437 19.3606C20.1661 19.4074 20.1954 19.4515 20.2233 19.4956C20.2426 19.5262 20.2696 19.5388 20.2998 19.5123C20.4212 19.4065 20.5475 19.3053 20.6607 19.191C20.7238 19.1266 20.711 19.0316 20.701 18.9461C20.69 18.8548 20.6771 18.7643 20.6675 18.6729C20.6561 18.5712 20.684 18.483 20.7596 18.411C20.8136 18.3597 20.8631 18.3035 20.9189 18.2544C21.0449 18.1446 21.098 18.0055 21.0966 17.8412C21.0952 17.7472 21.0971 17.6527 21.0993 17.5586C21.0998 17.5316 21.108 17.5046 21.1163 17.4587C21.1662 17.4992 21.2051 17.5285 21.2413 17.5604C21.3352 17.6428 21.3562 17.6401 21.4538 17.5631C21.5078 17.5208 21.5692 17.4857 21.6315 17.456C21.669 17.4385 21.7143 17.4461 21.724 17.4979C21.7349 17.5541 21.7711 17.5465 21.8082 17.5384C21.8902 17.5204 21.9016 17.5348 21.9149 17.618C21.9378 17.7598 21.9584 17.9038 22.0019 18.0397C22.0738 18.2647 22.1017 18.4956 22.1228 18.7283C22.1462 18.9898 22.1654 19.2513 22.1897 19.5123C22.1929 19.5478 22.2071 19.5852 22.2263 19.6158C22.3596 19.83 22.4392 20.065 22.4937 20.3084C22.5116 20.3903 22.496 20.4795 22.512 20.5623C22.5601 20.8107 22.6178 21.0573 22.6677 21.3053C22.6847 21.3886 22.692 21.4741 22.6998 21.5587C22.7039 21.6055 22.7044 21.6505 22.6645 21.6919C22.6453 21.7126 22.6476 21.7639 22.6545 21.7981C22.7218 22.1374 22.7259 22.4808 22.7282 22.8247C22.73 23.0812 22.7428 23.3364 22.7918 23.5889C22.812 23.6906 22.8221 23.7945 22.8317 23.8981C22.834 23.9215 22.8202 23.9489 22.8074 23.971C22.7795 24.0205 22.7277 24.0304 22.6883 23.9885C22.6531 23.9512 22.6224 23.9066 22.6 23.8607C22.5505 23.759 22.4869 23.6924 22.3614 23.7095C22.2945 23.7185 22.2602 23.6843 22.2437 23.6127C22.2368 23.583 22.2341 23.5524 22.2286 23.5223C22.2162 23.453 22.1956 23.4431 22.1297 23.4683C21.8975 23.5592 21.7711 23.7275 21.7272 23.9746C21.6896 24.1874 21.7212 24.3796 21.8146 24.5713C21.9172 24.7815 21.9937 25.0029 22.0349 25.2347C22.0372 25.2473 22.039 25.2604 22.0395 25.273C22.0395 25.2811 22.0358 25.2887 22.0308 25.3112C22.0097 25.2851 21.9946 25.2703 21.9845 25.2532C21.876 25.0709 21.7697 24.8877 21.6594 24.7068C21.5852 24.5857 21.5074 24.4669 21.4277 24.3495C21.3379 24.2176 21.2862 24.0758 21.2825 23.9147C21.2798 23.8017 21.2514 23.6982 21.1699 23.6087C21.1346 23.57 21.1186 23.5034 21.1154 23.448C21.1103 23.3679 21.1044 23.3409 21.0279 23.3454C20.8983 23.3521 20.8896 23.3058 20.8837 23.196C20.8773 23.074 20.8837 22.9507 20.874 22.8287C20.8704 22.7765 20.837 22.7266 20.8241 22.6739C20.8145 22.6325 20.8072 22.5866 20.8141 22.5456C20.8324 22.4385 20.8438 22.3292 20.9139 22.2374C20.9267 22.2198 20.9276 22.1856 20.9212 22.1627C20.8475 21.9007 20.7728 21.6388 20.6945 21.3778C20.6552 21.2463 20.608 21.1172 20.5645 20.9867C20.4715 20.7049 20.2929 20.4795 20.0837 20.2774C19.9999 20.1959 19.901 20.1298 19.8039 20.0632C19.7434 20.0218 19.6725 20.0344 19.5877 20.0488C19.6235 20.0924 19.6528 20.1212 19.6729 20.1559C19.7013 20.2036 19.7315 20.254 19.7434 20.3071C19.7595 20.3777 19.7164 20.407 19.6473 20.3827C19.5658 20.3539 19.4146 20.4439 19.4004 20.5285C19.3936 20.5717 19.4238 20.5713 19.449 20.5686C19.4893 20.5641 19.5287 20.5537 19.5713 20.5456C19.5548 20.6275 19.5108 20.6604 19.4371 20.646C19.3675 20.6325 19.3079 20.6505 19.2672 20.7049C19.1889 20.8098 19.1156 20.7963 19.0236 20.7328C18.8908 20.641 18.7621 20.5425 18.6353 20.4421C18.4869 20.3255 18.3436 20.2013 18.246 20.038C18.1847 19.9353 18.1503 19.8165 18.0885 19.7148C18.0138 19.592 17.9259 19.4767 17.8375 19.3633C17.8183 19.339 17.7707 19.3377 17.7382 19.3219C17.7226 19.3143 17.6993 19.294 17.7011 19.2846C17.7157 19.2193 17.7313 19.1536 17.7574 19.0924C17.7647 19.0753 17.8082 19.0649 17.8343 19.0667C17.8719 19.0694 17.8778 19.0559 17.8806 19.0235C17.8879 18.9439 17.893 18.8633 17.9104 18.7855C17.931 18.6954 17.9191 18.6131 17.8875 18.5294C17.8357 18.3953 17.7867 18.2598 17.7363 18.1252C17.7331 18.1176 17.7281 18.1108 17.7144 18.0879C17.724 18.1878 17.7345 18.2701 17.7391 18.353C17.7469 18.4997 17.7455 18.4997 17.5967 18.5379C17.6374 18.5766 17.6709 18.6122 17.708 18.6437C17.8229 18.7405 17.8238 18.7607 17.7638 18.8993C17.718 19.0069 17.6677 19.1167 17.6503 19.2306C17.6246 19.3962 17.7267 19.5249 17.8183 19.6514C17.8504 19.6955 17.887 19.7364 17.9218 19.7787C17.9781 19.8485 18.0061 19.925 17.9722 20.0132C18.1123 20.0456 18.1558 20.1055 18.1141 20.2081C18.0839 20.1982 18.0532 20.1878 18.0225 20.1779C18.0175 20.1824 18.0125 20.1865 18.0074 20.191C18.0225 20.2301 18.0312 20.2729 18.0528 20.308C18.1283 20.4308 18.2007 20.5569 18.2881 20.6712C18.4228 20.8471 18.4722 21.0326 18.4246 21.254C18.3752 21.4862 18.3133 21.7085 18.1389 21.8809C18.1004 21.9187 18.056 21.952 18.0106 21.9817C17.9021 22.0519 17.811 22.1356 17.7519 22.2536C17.7331 22.2914 17.7029 22.3269 17.6699 22.353C17.6274 22.3868 17.5852 22.3661 17.5958 22.3139C17.6141 22.2252 17.6475 22.1397 17.6754 22.0533C17.6809 22.0375 17.6915 22.0236 17.6924 22.0024C17.6489 22.0447 17.6086 22.0902 17.5623 22.1284C17.4524 22.2176 17.3398 22.3035 17.2281 22.3895C17.2166 22.3985 17.2006 22.4021 17.1864 22.4075C17.1085 22.4358 17.0866 22.425 17.0522 22.3323C17.0243 22.3616 16.9973 22.3854 16.9762 22.4133C16.8828 22.538 16.7926 22.578 16.6753 22.5434C16.5054 22.4934 16.385 22.3688 16.3768 22.2311C16.3722 22.1582 16.4093 22.1082 16.4821 22.0794C16.3777 22.0429 16.3378 22.0609 16.3072 22.1509C16.2911 22.1982 16.254 22.1955 16.2321 22.1685C16.1867 22.114 16.1492 22.0528 16.1125 21.9921C16.0887 21.9534 16.0741 21.9093 16.0507 21.8701C16.0425 21.8566 16.0187 21.8422 16.0045 21.8445C15.993 21.8467 15.9784 21.8728 15.9779 21.8886C15.9765 21.9277 15.9811 21.9669 15.9862 22.0056C15.9903 22.0357 16.0004 22.065 16.0063 22.0951C16.0471 22.3062 15.9454 22.4349 15.7316 22.4453C15.6835 22.448 15.6358 22.4525 15.5878 22.4583C15.5411 22.4642 15.5264 22.4853 15.5575 22.5285C15.6157 22.61 15.6061 22.6258 15.5131 22.6699C15.4554 22.6969 15.4018 22.7369 15.3538 22.7792C15.3061 22.8211 15.27 22.8283 15.2462 22.7693C15.2132 22.6879 15.1944 22.5997 15.1798 22.5123C15.1678 22.4394 15.1738 22.3638 15.1651 22.2905C15.1624 22.2653 15.1363 22.2221 15.1243 22.223C15.0909 22.2261 15.0387 22.2419 15.0314 22.2644C15.0144 22.3175 15.0117 22.3782 15.0163 22.4345C15.0236 22.5281 15.0314 22.6177 14.954 22.6901C14.8908 22.7495 14.8446 22.7504 14.7882 22.6838C14.7347 22.6208 14.6852 22.5546 14.6234 22.4768C14.6142 22.5605 14.6106 22.6316 14.5986 22.7009C14.589 22.7563 14.5771 22.813 14.5538 22.8634C14.524 22.9282 14.4507 22.9462 14.3894 22.9205C14.3894 22.8346 14.3926 22.7518 14.3875 22.6694C14.3862 22.6411 14.3665 22.6123 14.35 22.5871C14.3294 22.556 14.3001 22.5164 14.2616 22.5438C14.2346 22.5623 14.2254 22.6064 14.209 22.6397C14.2076 22.6429 14.2108 22.6483 14.2108 22.6523C14.2094 22.6829 14.2076 22.7135 14.2062 22.7441C14.1682 22.7329 14.1215 22.7315 14.094 22.7077C14.013 22.6375 13.9919 22.5375 13.9887 22.4345C13.9869 22.38 13.9928 22.3256 14.0093 22.2666C14.0249 22.3076 14.0409 22.349 14.0565 22.3899L14.0707 22.3877C14.072 22.38 14.0748 22.3728 14.0748 22.3652C14.083 22.0758 14.0757 21.7873 14.0079 21.5042C13.9924 21.4394 13.9653 21.376 13.9342 21.3166C13.8715 21.1973 13.8444 21.0717 13.8458 20.9381C13.8467 20.8746 13.844 20.8111 13.8376 20.7481C13.8348 20.7189 13.8284 20.6838 13.8106 20.6626C13.7332 20.5717 13.7455 20.4646 13.7396 20.3575C13.7345 20.2517 13.7176 20.1464 13.7016 20.0416C13.6965 20.0087 13.686 19.9862 13.73 19.9709C13.7909 19.9502 13.7927 19.8912 13.7913 19.839C13.7895 19.7873 13.7867 19.7342 13.7181 19.7171C13.6507 19.7004 13.6297 19.6379 13.6187 19.5812C13.5848 19.4065 13.5875 19.2324 13.6585 19.0658C13.6773 19.0213 13.7116 18.9817 13.7451 18.9448C13.768 18.9196 13.8014 18.9038 13.8298 18.884C13.8257 18.8728 13.8211 18.862 13.817 18.8507C13.7616 18.8318 13.7071 18.8053 13.6498 18.7954C13.5578 18.7796 13.4644 18.7711 13.371 18.767C13.2757 18.763 13.2075 18.7125 13.2093 18.6158C13.2102 18.546 13.2313 18.4754 13.2528 18.4079C13.273 18.3462 13.31 18.2899 13.3316 18.2287C13.3595 18.1495 13.3426 18.1113 13.272 18.0694C13.229 18.0438 13.1818 18.0244 13.1402 17.997C13.0866 17.9619 13.0477 17.9182 13.0316 17.8484C13.0229 17.8088 12.9799 17.7665 12.9414 17.7458C12.8878 17.717 12.8585 17.6783 12.8567 17.6234C12.8507 17.4605 12.8645 17.2994 12.93 17.1482C12.9437 17.1162 12.9762 17.0861 13.0083 17.0694C13.0967 17.0235 13.1663 16.9591 13.2171 16.8754C13.2546 16.8129 13.2588 16.749 13.2414 16.6702C13.2079 16.5176 13.2052 16.3583 13.1814 16.2031C13.1681 16.1157 13.1489 16.0262 13.1131 15.9465C13.0564 15.8192 12.9423 15.7665 12.8077 15.7517C12.7065 15.7404 12.603 15.735 12.505 15.7093C12.4446 15.6936 12.3924 15.6463 12.3383 15.6103C12.293 15.5793 12.2532 15.5415 12.2078 15.5109C12.1378 15.4636 12.0631 15.4398 11.9807 15.4861C11.9642 15.4956 11.9431 15.4983 11.9239 15.5014C11.8538 15.5127 11.83 15.496 11.8282 15.4245C11.8264 15.3525 11.831 15.28 11.8342 15.208C11.8401 15.0865 11.8149 15.0496 11.7009 15.0185C11.531 14.9717 11.4884 14.8754 11.5741 14.7201C11.6066 14.6612 11.6524 14.6099 11.6885 14.5527C11.7279 14.4902 11.7687 14.4276 11.7984 14.3605C11.8117 14.3304 11.8035 14.2876 11.7966 14.2521C11.7838 14.1882 11.7939 14.1675 11.8593 14.176C11.9409 14.1859 12.0228 14.203 12.1016 14.2269C12.1707 14.2485 12.2243 14.2345 12.2742 14.1859C12.4121 14.0514 12.4762 13.8848 12.5004 13.6963C12.5101 13.6225 12.5398 13.5495 12.5705 13.4807C12.5797 13.4595 12.6273 13.4361 12.6488 13.4424C12.8498 13.5009 13.0559 13.4892 13.2606 13.4964C13.3742 13.5 13.4882 13.4955 13.6017 13.491C13.697 13.4874 13.7139 13.4636 13.7355 13.374C13.7446 13.3353 13.7794 13.3029 13.8101 13.2557C13.7858 13.2372 13.7474 13.2039 13.7057 13.176C13.6233 13.1211 13.539 13.0666 13.5005 12.9708C13.4795 12.9186 13.4699 12.8619 13.4589 12.8065C13.4438 12.7314 13.409 12.694 13.3325 12.689C13.1951 12.6796 13.0573 12.6773 12.9204 12.6643C12.7637 12.6499 12.5819 12.4838 12.5297 12.334C12.5101 12.2768 12.4679 12.2201 12.4208 12.1814C12.2985 12.0801 12.1689 11.9874 12.0384 11.8961C12.0086 11.8749 11.9656 11.8659 11.9276 11.8627C11.6853 11.8411 11.634 11.7727 11.6661 11.5014C11.6734 11.4393 11.7243 11.383 11.7526 11.3231C11.7879 11.2489 11.8342 11.1764 11.8506 11.0981C11.8749 10.9833 11.9308 10.8942 12.0219 10.8285C12.1506 10.7358 12.2696 10.6386 12.3507 10.4959C12.3837 10.4374 12.456 10.401 12.511 10.3546C12.516 10.3506 12.5233 10.3506 12.5293 10.347C12.5879 10.3087 12.6657 10.284 12.6566 10.1917C12.6488 10.1183 12.5577 10.0369 12.4688 10.0328C12.407 10.0301 12.3443 10.0459 12.282 10.0531C12.2678 10.0544 12.2532 10.0549 12.2358 10.0558C12.2344 10.0432 12.2312 10.0346 12.233 10.0274C12.2696 9.90187 12.3067 9.77631 12.3438 9.65119C12.3475 9.63859 12.3525 9.62419 12.3612 9.61609C12.3814 9.59809 12.4043 9.58368 12.4263 9.56793C12.4414 9.59043 12.4698 9.61294 12.4688 9.63454C12.4633 9.76055 12.5536 9.81636 12.6396 9.87127C12.7202 9.92302 12.8137 9.95633 12.8888 10.0144C12.9831 10.0868 13.0724 10.1692 13.1489 10.2597C13.2217 10.3461 13.2102 10.4023 13.1237 10.4964C13.1782 10.4896 13.2189 10.4851 13.2592 10.4797C13.3861 10.4622 13.3961 10.4671 13.4589 10.5837C13.4667 10.5986 13.4776 10.6112 13.4877 10.6251C13.4978 10.6202 13.5051 10.6188 13.5088 10.6143C13.6008 10.5157 13.6008 10.5166 13.7254 10.5666C13.7817 10.5891 13.8389 10.6125 13.898 10.6233C13.9543 10.6337 13.9754 10.6017 13.9438 10.5544C13.9067 10.4991 13.8564 10.4518 13.8147 10.3992C13.7721 10.3447 13.7249 10.2912 13.6942 10.2304C13.6608 10.162 13.6979 10.1152 13.773 10.1129C13.936 10.1089 14.1004 10.234 14.1412 10.3933C14.1888 10.5806 14.2506 10.7624 14.3546 10.9262C14.3793 10.9653 14.4256 10.991 14.4636 11.0216C14.5075 11.0572 14.5556 11.0882 14.5973 11.1265C14.6806 11.2025 14.7644 11.2561 14.8899 11.2358C14.9554 11.2255 15.0291 11.261 15.0978 11.279C15.123 11.2853 15.1459 11.3002 15.1688 11.3123C15.2892 11.3758 15.308 11.3677 15.308 11.2336C15.3075 11.1715 15.3455 11.1395 15.4188 11.1305C15.3991 11.0986 15.3867 11.0725 15.3689 11.0504C15.3277 10.9986 15.3171 10.9415 15.3496 10.8852C15.3817 10.829 15.4192 10.7741 15.4632 10.7273C15.5058 10.6823 15.5415 10.6976 15.5539 10.7588C15.5585 10.7799 15.552 10.8056 15.5617 10.8231C15.5704 10.8398 15.5988 10.8623 15.6102 10.8582C15.667 10.838 15.7032 10.8663 15.7256 10.9073C15.7631 10.9752 15.7993 11.0464 15.8218 11.1202C15.8575 11.239 15.9019 11.3506 15.9898 11.4411C16.0265 11.4784 16.0347 11.5162 15.9894 11.5599C15.9678 11.5815 15.9541 11.622 15.9536 11.6539C15.9504 11.7786 15.9541 11.9033 15.9546 12.0279C15.9546 12.2376 15.9578 12.4478 15.9509 12.6575C15.9477 12.753 15.9216 12.847 15.9106 12.9424C15.906 12.9856 15.9092 13.0302 15.9152 13.0729C15.9248 13.1463 15.977 13.2089 16.0429 13.2129C16.2192 13.2237 16.3772 13.2885 16.5348 13.3614C16.7802 13.4748 17.0417 13.5248 17.31 13.5288C17.7341 13.5351 18.1586 13.536 18.583 13.5302C18.7726 13.5279 18.9622 13.5014 19.1518 13.4901C19.334 13.4793 19.5131 13.5 19.6885 13.5554C19.9628 13.6423 20.243 13.6423 20.5251 13.6004C20.7234 13.5711 20.9212 13.5374 21.1195 13.509C21.3191 13.4807 21.49 13.5563 21.6585 13.6549C21.8046 13.7404 21.9602 13.8106 22.1109 13.8889C22.1668 13.9181 22.2181 13.9465 22.2341 14.0217C22.2423 14.0613 22.2877 14.0982 22.3252 14.1243C22.3669 14.1531 22.42 14.172 22.4214 14.2296C22.4223 14.2894 22.3834 14.3362 22.3302 14.3556C22.2391 14.3884 22.1448 14.4141 22.05 14.4362C21.9158 14.4677 21.9094 14.4884 21.8696 14.6225C21.8215 14.7849 21.7546 14.942 21.6869 15.0977C21.62 15.2503 21.5499 15.4002 21.5321 15.5685C21.5229 15.6585 21.4991 15.6702 21.4075 15.6891C21.3315 15.7048 21.2573 15.7332 21.1845 15.762C21.081 15.8025 21.0384 15.8844 21.0334 15.9933C21.0297 16.0671 21.0215 16.1414 21.0041 16.213C20.9968 16.2431 20.9606 16.2665 20.9372 16.2931C20.9139 16.2701 20.8841 16.2508 20.8681 16.2233C20.8292 16.1576 20.7559 16.1144 20.6904 16.1252C20.6368 16.1342 20.6117 16.1626 20.6304 16.2166C20.646 16.262 20.6478 16.2989 20.5906 16.3124C20.5334 16.3255 20.4825 16.2971 20.4674 16.2476C20.461 16.226 20.4463 16.2071 20.4354 16.1869C20.4129 16.2017 20.3822 16.2107 20.3694 16.2314C20.3493 16.2638 20.3374 16.303 20.3287 16.3408C20.3076 16.4308 20.2838 16.456 20.1922 16.46C20.129 16.4627 20.0654 16.4578 20.0022 16.4564C19.9454 16.4551 19.8881 16.4501 19.8318 16.4524C19.7379 16.4569 19.7192 16.4785 19.7114 16.5716C19.7077 16.6126 19.7031 16.654 19.6935 16.6936C19.6844 16.7332 19.6578 16.7553 19.6134 16.7571C19.4861 16.7616 19.4101 16.834 19.384 16.9528C19.362 17.0528 19.351 17.1554 19.3409 17.2575C19.3327 17.3399 19.3112 17.3655 19.2315 17.3867C19.2017 17.3948 19.1614 17.4191 19.1555 17.443C19.1495 17.4682 19.1719 17.5114 19.1953 17.5298C19.2438 17.5676 19.2676 17.5919 19.2072 17.6432C19.1889 17.659 19.1916 17.7157 19.2022 17.7481C19.2361 17.8516 19.2718 17.9551 19.3171 18.0541C19.4481 18.3417 19.5429 18.6396 19.5905 18.9529C19.6042 19.0397 19.6253 19.1279 19.6866 19.1973" fill="#F9ED22"/>
<path d="M18.6911 21.9561C18.7204 21.8796 18.7374 21.8192 18.7657 21.7652C18.8514 21.601 18.8885 21.4277 18.8972 21.2432C18.9017 21.1505 18.9356 21.0564 18.9709 20.9695C18.9947 20.9106 19.0327 20.9137 19.0762 20.9619C19.2241 21.1262 19.2521 21.3458 19.1509 21.5542C19.0684 21.7238 18.9379 21.8453 18.7726 21.9318C18.7548 21.9408 18.7337 21.9435 18.6911 21.9561Z" fill="#F9ED22"/>
<path d="M20.1661 20.8913C20.1441 20.9291 20.1308 20.9826 20.0983 20.9997C20.0685 21.015 20.0122 21.0015 19.9779 20.9826C19.829 20.8998 19.7356 20.6514 19.7855 20.4894C19.8084 20.416 19.8602 20.3953 19.9197 20.4358C20.0241 20.5078 20.1537 20.7562 20.1661 20.8913Z" fill="#F9ED22"/>
<path d="M18.5263 21.7648C18.5977 21.5447 18.6339 21.3251 18.7278 21.1145C18.8372 21.2661 18.7099 21.6793 18.5263 21.7648Z" fill="#F9ED22"/>
<path d="M18.4035 20.5078C18.4937 20.4835 18.6682 20.569 18.6971 20.6496C18.7126 20.6923 18.6952 20.7229 18.6549 20.7234C18.5881 20.7238 18.4223 20.5978 18.4035 20.5317C18.4017 20.524 18.4035 20.515 18.4035 20.5078Z" fill="#F9ED22"/>
<path d="M18.8967 20.9241C18.8711 20.9561 18.8514 21.0024 18.8184 21.0164C18.7717 21.0362 18.7149 21.0326 18.6623 21.0357C18.66 21.0357 18.6453 20.9934 18.6531 20.984C18.6884 20.9381 18.7241 20.889 18.7699 20.8557C18.8253 20.8152 18.8834 20.8494 18.8967 20.9241Z" fill="#F9ED22"/>
<path d="M18.0422 22.0668C18.0468 22.0808 18.0642 22.1046 18.0592 22.1208C18.0335 22.2 17.9845 22.2644 17.9072 22.2995C17.8618 22.3202 17.8192 22.2905 17.8224 22.2446C17.8275 22.1834 17.9616 22.0646 18.0422 22.0668Z" fill="#F9ED22"/>
<path d="M18.1773 22.2009C18.1828 22.2112 18.1961 22.2252 18.1975 22.2405C18.2016 22.2855 18.1489 22.3517 18.1105 22.3481C18.0986 22.3467 18.0807 22.3247 18.0793 22.3107C18.0743 22.2657 18.1279 22.2018 18.1773 22.2009Z" fill="#F9ED22"/>
<path d="M17.7937 18.5253C17.8218 18.5624 17.8517 18.5982 17.8766 18.6376C17.8831 18.6471 17.872 18.6679 17.8692 18.6833C17.8563 18.6778 17.8365 18.676 17.831 18.6665C17.808 18.6258 17.7891 18.5833 17.7689 18.5412C17.7771 18.5357 17.7854 18.5303 17.7937 18.5253Z" fill="#F9ED22"/>
<path d="M41.335 20.7234H45.7618V1.36707H41.335V20.7234Z" fill="#0BA64D"/>
<path d="M52.2955 11.0319C52.2955 6.87796 55.0389 4.85632 58.5699 4.85632C60.1461 4.85632 61.4008 5.18891 62.3057 5.5485V1.86392C61.3734 1.59344 60.0124 1.36707 58.3657 1.36707C52.4122 1.36707 47.626 4.91168 47.626 11.2808C47.626 16.5977 51.1282 20.6131 57.9279 20.6131C59.8036 20.6131 61.3358 20.3579 62.3057 20.0609V16.5149C61.4301 16.8471 59.9414 17.1239 58.5988 17.1239C54.63 17.1239 52.2955 14.7701 52.2955 11.0319Z" fill="#0BA64D"/>
<path d="M64.1919 1.36707V5.02239H69.3793V20.6131H73.7639V5.02239H79.0369V1.36707" fill="#0BA64D"/>
<path d="M42.9098 29.0147C43.0316 29.043 43.2286 29.043 43.4067 29.043C44.7008 29.0529 45.5447 28.3329 45.5447 26.8076C45.5539 25.4818 44.785 24.7806 43.5569 24.7806C43.2382 24.7806 43.0316 24.809 42.9098 24.8373V29.0147ZM41.4756 23.8049C42.0004 23.7198 42.685 23.6721 43.4067 23.6721C44.6069 23.6721 45.3849 23.8904 45.9949 24.3544C46.6506 24.8472 47.0632 25.633 47.0632 26.7604C47.0632 27.9823 46.6227 28.8252 46.0136 29.3464C45.3474 29.9053 44.3354 30.1704 43.0976 30.1704C42.3567 30.1704 41.8319 30.1232 41.4756 30.0759" fill="#0BA64D"/>
<path d="M48.0001 30.1043H49.4348V23.7198H48.0001V30.1043Z" fill="#0BA64D"/>
<path d="M52.1627 30.1043L50.1373 23.7198H51.7034L52.4722 26.4193C52.6879 27.1772 52.8844 27.9067 53.0346 28.7024H53.0629C53.2223 27.935 53.4192 27.1772 53.6344 26.4476L54.4408 23.7198H55.9598L53.8313 30.1043" fill="#0BA64D"/>
<path d="M56.6338 30.1043H58.0685V23.7198H56.6338V30.1043Z" fill="#0BA64D"/>
<path d="M59.3525 28.6169C59.7367 28.8162 60.3275 29.0147 60.937 29.0147C61.5932 29.0147 61.9403 28.7402 61.9403 28.3234C61.9403 27.9256 61.6403 27.6983 60.8806 27.4233C59.8306 27.0538 59.1465 26.4669 59.1465 25.5385C59.1465 24.4489 60.0468 23.6154 61.5373 23.6154C62.2498 23.6154 62.7746 23.7671 63.1497 23.9377L62.8309 25.1028C62.5777 24.9795 62.128 24.7995 61.5089 24.7995C60.8903 24.7995 60.5903 25.0839 60.5903 25.4152C60.5903 25.8225 60.9466 26.0025 61.7621 26.3153C62.8777 26.732 63.4029 27.3193 63.4029 28.219C63.4029 29.2897 62.5873 30.1988 60.8527 30.1988C60.131 30.1988 59.418 30.0093 59.0618 29.8104" fill="#0BA64D"/>
<path d="M64.3677 30.1043H65.8024V23.7198H64.3677V30.1043Z" fill="#0BA64D"/>
<path d="M68.2583 26.931C68.2583 28.1812 68.8398 29.0624 69.796 29.0624C70.7617 29.0624 71.3149 28.134 71.3149 26.8932C71.3149 25.7469 70.7713 24.7617 69.7868 24.7617C68.821 24.7617 68.2583 25.6902 68.2583 26.931ZM72.8242 26.8455C72.8242 28.9391 71.5681 30.2082 69.7209 30.2082C67.8457 30.2082 66.7489 28.778 66.7489 26.9593C66.7489 25.0457 67.9583 23.6159 69.8239 23.6159C71.765 23.6159 72.8242 25.0839 72.8242 26.8455Z" fill="#0BA64D"/>
<path d="M73.7611 30.1043V23.7198H75.4298L76.7427 26.0597C77.1177 26.7316 77.4928 27.5277 77.7739 28.2474H77.8019C77.7084 27.4044 77.6801 26.5426 77.6801 25.5858V23.7198H78.9929V30.1043H77.4928L76.1423 27.6412C75.7673 26.9593 75.3552 26.1353 75.0456 25.3868L75.0177 25.3963C75.0552 26.2392 75.0736 27.1393 75.0736 28.1812V30.1043" fill="#0BA64D"/>
<path d="M2.53506 42.2935H3.16196V40.6013H4.96481V40.0423H3.16196V38.996H5.21576V38.437H2.53506" fill="#EC1C24"/>
<path d="M10.7585 41.1166C10.7553 41.2597 10.7246 41.3835 10.6669 41.4839C10.5222 41.7309 10.2566 41.8511 9.85545 41.8511C9.59673 41.8511 9.37921 41.7904 9.2107 41.672C9.04538 41.5455 8.96479 41.3646 8.96479 41.118V38.437H8.33789V41.1189C8.34155 41.411 8.41711 41.6621 8.56411 41.866C8.83062 42.2274 9.26473 42.4105 9.85545 42.4105C10.2323 42.4105 10.5542 42.33 10.8125 42.1706C11.1931 41.9375 11.3854 41.5833 11.3854 41.118V38.437H10.7585" fill="#EC1C24"/>
<path d="M14.4091 38.996H15.6546V42.2935H16.2792V38.996H17.5175V38.437H14.4091" fill="#EC1C24"/>
<path d="M22.9897 41.1166C22.9864 41.2597 22.9553 41.3835 22.8976 41.4839C22.7534 41.7309 22.4878 41.8511 22.0862 41.8511C21.8274 41.8511 21.6099 41.7904 21.4414 41.672C21.2761 41.5455 21.196 41.3646 21.196 41.118V38.437H20.5691V41.1189C20.5723 41.411 20.6483 41.6621 20.7953 41.866C21.0613 42.2274 21.4959 42.4105 22.0862 42.4105C22.463 42.4105 22.785 42.33 23.0437 42.1706C23.4238 41.9375 23.6166 41.5833 23.6166 41.118V38.437H22.9897" fill="#EC1C24"/>
<path d="M27.6394 38.996H28.7348C28.9674 38.996 29.1345 39.0378 29.233 39.1211C29.3488 39.2174 29.4052 39.3637 29.4052 39.5675C29.4052 39.6364 29.3983 39.6972 29.3836 39.7525C29.3301 40.0095 29.1181 40.1342 28.7348 40.1342H27.6394V38.996ZM30.055 41.9474C30.0197 41.8912 29.9762 41.7426 29.9661 41.3561C29.9625 41.0514 29.9309 40.8371 29.8681 40.6994C29.8095 40.5784 29.6992 40.4735 29.5393 40.3857C29.5769 40.3641 29.6131 40.3416 29.6474 40.3191C29.9144 40.1315 30.0499 39.8565 30.0499 39.5005C30.0499 39.3511 30.0298 39.2156 29.9904 39.0968C29.8379 38.6589 29.4473 38.437 28.8286 38.437H27.0121V42.2935H27.6394V40.6931H28.8108C28.8827 40.6931 28.9477 40.6994 29.0036 40.7116C29.2449 40.762 29.3621 40.9497 29.3621 41.2836L29.3571 41.6157C29.3571 41.8669 29.3956 42.0802 29.472 42.2512L29.4908 42.2935H30.1969V42.0689L30.1658 42.0482C30.1172 42.0149 30.0788 41.9794 30.055 41.9474Z" fill="#EC1C24"/>
<path d="M34.027 40.6009H36.0858V40.0423H34.027V38.996H36.1641V38.437H33.3997V42.2935H36.2553V41.7341H34.027" fill="#EC1C24"/>
<path d="M43.6736 42.2935H44.3033V38.437H43.6736V42.2935Z" fill="#EC1C24"/>
<path d="M49.7618 40.2039L48.8139 39.9523C48.6783 39.9172 48.5675 39.8785 48.4846 39.8362C48.323 39.7538 48.2447 39.6346 48.2447 39.4708C48.2447 39.3677 48.2712 39.2786 48.3266 39.1985C48.4553 39.0068 48.6815 38.914 49.0186 38.914C49.1509 38.914 49.27 38.9275 49.3725 38.9541C49.7169 39.0432 49.8859 39.2543 49.8891 39.5981L49.8895 39.6679H50.4908V39.5977C50.4908 39.3618 50.4381 39.153 50.3346 38.9779C50.1043 38.5779 49.6665 38.3749 49.0341 38.3749C48.7081 38.3749 48.426 38.4361 48.1948 38.5571C47.8119 38.7606 47.6178 39.0905 47.6178 39.5383C47.6214 40.0234 47.8889 40.3376 48.4127 40.4721L49.3551 40.7165C49.3968 40.7255 49.4344 40.7368 49.4733 40.7521C49.8227 40.8605 49.993 41.0234 49.993 41.2498L49.988 41.3074C49.9701 41.4789 49.8937 41.6094 49.7558 41.7071C49.613 41.8029 49.3927 41.8511 49.0996 41.8511C48.7205 41.8511 48.4457 41.7552 48.2841 41.5653C48.159 41.4186 48.1009 41.2476 48.1055 41.0423L48.1073 40.9703H47.5033L47.5038 41.0414C47.5074 41.3736 47.5871 41.6463 47.7405 41.8515C48.0166 42.2224 48.464 42.4105 49.0694 42.4105C49.5392 42.4105 49.9115 42.3092 50.1785 42.1081L50.2508 42.0496C50.4743 41.8407 50.5984 41.5815 50.6199 41.2746V41.2026C50.6199 41.1017 50.6062 41.0045 50.5792 40.9145C50.4761 40.5608 50.2009 40.3214 49.7618 40.2039Z" fill="#EC1C24"/>
<path d="M60.3325 40.0423H58.531V38.437H57.9069V42.2935H58.536V40.6013H60.3325V42.2935H60.9594V38.437H60.3325" fill="#EC1C24"/>
<path d="M64.9717 40.6009H67.0305V40.0423H64.9717V38.996H67.1089V38.437H64.3448V42.2935H67.2V41.7341H64.9717" fill="#EC1C24"/>
<path d="M71.1065 38.996H72.2019C72.4345 38.996 72.6021 39.0378 72.7001 39.1211C72.816 39.2174 72.8723 39.3637 72.8723 39.5675C72.8723 39.6364 72.8654 39.6972 72.8508 39.7525C72.7977 40.0095 72.5852 40.1342 72.2019 40.1342H71.1065V38.996ZM73.5216 41.9474C73.4868 41.8912 73.4433 41.7426 73.4337 41.3561C73.4301 41.0514 73.398 40.8371 73.3357 40.6994C73.2766 40.5784 73.1663 40.4735 73.0065 40.3857C73.0445 40.3641 73.0807 40.3416 73.115 40.3191C73.3815 40.1315 73.5171 39.8565 73.5171 39.5005C73.5171 39.3511 73.4974 39.2156 73.4575 39.0968C73.3055 38.6589 72.9144 38.437 72.2958 38.437H70.4792V42.2935H71.1065V40.6931H72.2779C72.3503 40.6931 72.4148 40.6994 72.4707 40.7116C72.712 40.762 72.8293 40.9497 72.8293 41.2836L72.8242 41.6157C72.8242 41.8669 72.8627 42.0802 72.9392 42.2512L72.9579 42.2935H73.6641V42.0689L73.6334 42.0482C73.5844 42.0149 73.5459 41.9794 73.5216 41.9474Z" fill="#EC1C24"/>
<path d="M77.4941 41.7341V40.6009H79.553V40.0423H77.4941V38.996H79.6313V38.437H76.8668V42.2935H79.7224V41.7341" fill="#EC1C24"/>
</g>
<defs>
<clipPath id="clip0_5_2817">
<rect width="79.7226" height="42.3018" fill="white" transform="translate(0 0.108734)"/>
</clipPath>
</defs>
</svg>
