<svg width="90" height="124" viewBox="0 0 90 124" fill="none" xmlns="http://www.w3.org/2000/svg">
<path d="M45 0C37.5435 0.00894568 30.395 2.97962 25.1225 8.26039C19.85 13.5412 16.8839 20.7009 16.875 28.169V43.7465C9.59708 49.5826 4.30871 57.5387 1.74071 66.5153C-0.827293 75.4919 -0.548123 85.0457 2.53964 93.8565C5.6274 102.667 11.3713 110.3 18.9775 115.7C26.5838 121.1 35.6768 124 45 124C54.3232 124 63.4162 121.1 71.0225 115.7C78.6287 110.3 84.3726 102.667 87.4604 93.8565C90.5481 85.0457 90.8273 75.4919 88.2593 66.5153C85.6913 57.5387 80.4029 49.5826 73.125 43.7465V28.169C73.1161 20.7009 70.15 13.5412 64.8775 8.26039C59.605 2.97962 52.4565 0.00894568 45 0V0ZM28.125 28.169C28.125 23.6865 29.9029 19.3875 33.0676 16.2179C36.2322 13.0483 40.5245 11.2676 45 11.2676C49.4755 11.2676 53.7677 13.0483 56.9324 16.2179C60.0971 19.3875 61.875 23.6865 61.875 28.169V37.1211C51.0586 32.697 38.9414 32.697 28.125 37.1211V28.169ZM78.75 78.8732C78.75 85.5588 76.7706 92.0942 73.0621 97.6531C69.3536 103.212 64.0826 107.545 57.9156 110.103C51.7486 112.661 44.9626 113.331 38.4157 112.027C31.8688 110.722 25.8552 107.503 21.1351 102.775C16.4151 98.048 13.2007 92.025 11.8985 85.4678C10.5962 78.9107 11.2646 72.1141 13.8191 65.9375C16.3735 59.7608 20.6993 54.4815 26.2495 50.7672C31.7997 47.0529 38.3249 45.0704 45 45.0704C53.9483 45.0794 62.5276 48.6436 68.855 54.9809C75.1824 61.3182 78.7411 69.9109 78.75 78.8732ZM56.25 73.2394C56.2445 75.2094 55.7219 77.1432 54.7346 78.847C53.7473 80.5507 52.33 81.9645 50.625 82.9465V95.7747C50.625 97.2688 50.0324 98.7018 48.9775 99.7584C47.9226 100.815 46.4918 101.408 45 101.408C43.5082 101.408 42.0774 100.815 41.0225 99.7584C39.9676 98.7018 39.375 97.2688 39.375 95.7747V82.9465C37.6629 81.9564 36.2416 80.532 35.2541 78.8167C34.2666 77.1014 33.7479 75.1557 33.7501 73.1757C33.7524 71.1957 34.2755 69.2512 35.2669 67.5381C36.2583 65.825 37.6829 64.4039 39.3972 63.4177C41.1115 62.4316 43.055 61.9154 45.0319 61.921C47.0089 61.9266 48.9494 62.4538 50.6581 63.4497C52.3668 64.4455 53.7834 65.8747 54.7651 67.5934C55.7468 69.312 56.2589 71.2594 56.25 73.2394Z" fill="white"/>
</svg>
