<svg width="268" height="226" viewBox="0 0 268 226" fill="none" xmlns="http://www.w3.org/2000/svg">
<path d="M0 0H268V92C268 166.006 208.006 226 134 226C59.9938 226 0 166.006 0 92V0Z" fill="#4FD6B5"/>
<path d="M134 52C126.544 52.0089 119.395 54.9796 114.122 60.2604C108.85 65.5412 105.884 72.7009 105.875 80.169V95.7465C98.5971 101.583 93.3087 109.539 90.7407 118.515C88.1727 127.492 88.4519 137.046 91.5396 145.856C94.6274 154.667 100.371 162.3 107.978 167.7C115.584 173.1 124.677 176 134 176C143.323 176 152.416 173.1 160.022 167.7C167.629 162.3 173.373 154.667 176.46 145.856C179.548 137.046 179.827 127.492 177.259 118.515C174.691 109.539 169.403 101.583 162.125 95.7465V80.169C162.116 72.7009 159.15 65.5412 153.878 60.2604C148.605 54.9796 141.456 52.0089 134 52ZM117.125 80.169C117.125 75.6865 118.903 71.3875 122.068 68.2179C125.232 65.0483 129.524 63.2676 134 63.2676C138.476 63.2676 142.768 65.0483 145.932 68.2179C149.097 71.3875 150.875 75.6865 150.875 80.169V89.1211C140.059 84.697 127.941 84.697 117.125 89.1211V80.169ZM167.75 130.873C167.75 137.559 165.771 144.094 162.062 149.653C158.354 155.212 153.083 159.545 146.916 162.103C140.749 164.661 133.963 165.331 127.416 164.027C120.869 162.722 114.855 159.503 110.135 154.775C105.415 150.048 102.201 144.025 100.898 137.468C99.5962 130.911 100.265 124.114 102.819 117.937C105.374 111.761 109.699 106.482 115.25 102.767C120.8 99.0529 127.325 97.0704 134 97.0704C142.948 97.0794 151.528 100.644 157.855 106.981C164.182 113.318 167.741 121.911 167.75 130.873ZM145.25 125.239C145.244 127.209 144.722 129.143 143.735 130.847C142.747 132.551 141.33 133.964 139.625 134.946V147.775C139.625 149.269 139.032 150.702 137.977 151.758C136.923 152.815 135.492 153.408 134 153.408C132.508 153.408 131.077 152.815 130.023 151.758C128.968 150.702 128.375 149.269 128.375 147.775V134.946C126.663 133.956 125.242 132.532 124.254 130.817C123.267 129.101 122.748 127.156 122.75 125.176C122.752 123.196 123.276 121.251 124.267 119.538C125.258 117.825 126.683 116.404 128.397 115.418C130.112 114.432 132.055 113.915 134.032 113.921C136.009 113.927 137.949 114.454 139.658 115.45C141.367 116.445 142.783 117.875 143.765 119.593C144.747 121.312 145.259 123.259 145.25 125.239Z" fill="white"/>
</svg>
