<svg width="268" height="226" viewBox="0 0 268 226" fill="none" xmlns="http://www.w3.org/2000/svg">
<path d="M0 0H268V92C268 166.006 208.006 226 134 226C59.9938 226 0 166.006 0 92V0Z" fill="#FFDC74"/>
<path d="M123.026 63.6424L71.1475 150.25C70.0779 152.102 69.5119 154.202 69.5059 156.341C69.4999 158.48 70.0541 160.584 71.1133 162.442C72.1726 164.3 73.6999 165.849 75.5434 166.933C77.387 168.018 79.4824 168.601 81.6212 168.625H185.379C187.518 168.601 189.613 168.018 191.457 166.933C193.3 165.849 194.827 164.3 195.887 162.442C196.946 160.584 197.5 158.48 197.494 156.341C197.488 154.202 196.922 152.102 195.852 150.25L143.974 63.6424C142.882 61.8423 141.344 60.354 139.51 59.3211C137.675 58.2882 135.605 57.7456 133.5 57.7456C131.395 57.7456 129.325 58.2882 127.49 59.3211C125.656 60.354 124.118 61.8423 123.026 63.6424V63.6424Z" stroke="white" stroke-width="13" stroke-linecap="round" stroke-linejoin="round"/>
<path d="M133.5 95.125V119.625" stroke="white" stroke-width="13" stroke-linecap="round" stroke-linejoin="round"/>
<path d="M133.5 144.125H133.561" stroke="white" stroke-width="13" stroke-linecap="round" stroke-linejoin="round"/>
</svg>
